{
    "asset" : {
        "generator" : "Khronos glTF Blender I/O v1.5.17",
        "version" : "2.0"
    },
    "scene" : 0,
    "scenes" : [
        {
            "name" : "Scene",
            "nodes" : [
                0,
                1,
                2,
                4,
                5,
                6,
                7
            ]
        }
    ],
    "nodes" : [
        {
            "name" : "Camera",
            "rotation" : [
                0.483536034822464,
                0.33687159419059753,
                -0.20870360732078552,
                0.7804827094078064
            ],
            "translation" : [
                7.358891487121582,
                4.958309173583984,
                6.925790786743164
            ]
        },
        {
            "name" : "Cam1_A4portrait_595x842",
            "rotation" : [
                0.19386056065559387,
                -0.6179221272468567,
                0.6800133585929871,
                0.34376177191734314
            ],
            "scale" : [
                0.009999999776482582,
                0.009999999776482582,
                0.009999999776482582
            ],
            "translation" : [
                -2.3999998569488525,
                1.7999999523162842,
                2.3999998569488525
            ]
        },
        {
            "name" : "Cam2_A4landscape_842x595",
            "rotation" : [
                0.19386056065559387,
                -0.6179221272468567,
                0.6800133585929871,
                0.34376177191734314
            ],
            "scale" : [
                0.009999999776482582,
                0.009999999776482582,
                0.009999999776482582
            ],
            "translation" : [
                -4.04310941696167,
                2.3439958095550537,
                4.043110370635986
            ]
        },
        {
            "mesh" : 0,
            "name" : "Planks",
            "translation" : [
                0.01894059032201767,
                4.913935661315918,
                1.7795028686523438
            ]
        },
        {
            "children" : [
                3
            ],
            "mesh" : 1,
            "name" : "Poles",
            "rotation" : [
                0.7068803906440735,
                -0.017893033102154732,
                -0.017893033102154732,
                0.7068803310394287
            ],
            "translation" : [
                0,
                1.2999999523162842,
                0
            ]
        },
        {
            "mesh" : 2,
            "name" : "Text.001",
            "rotation" : [
                -0.01685604639351368,
                -0.7058002352714539,
                0.7077062726020813,
                0.02671630121767521
            ],
            "scale" : [
                0.16122056543827057,
                0.16122055053710938,
                0.16122058033943176
            ],
            "translation" : [
                0.014619927853345871,
                2.0353381633758545,
                -0.2001865804195404
            ]
        },
        {
            "mesh" : 3,
            "name" : "Text.002",
            "rotation" : [
                -0.02208802103996277,
                -0.711625337600708,
                0.7018811106681824,
                0.021551555022597313
            ],
            "scale" : [
                0.16122056543827057,
                0.16122055053710938,
                0.16122058033943176
            ],
            "translation" : [
                0.022118568420410156,
                1.7064061164855957,
                -0.17159317433834076
            ]
        },
        {
            "mesh" : 4,
            "name" : "Text.003",
            "rotation" : [
                -0.025576699525117874,
                -0.6827195882797241,
                0.7297451496124268,
                0.02668113261461258
            ],
            "scale" : [
                0.16122056543827057,
                0.16122055053710938,
                0.16122058033943176
            ],
            "translation" : [
                -0.012333393096923828,
                1.1776896715164185,
                -0.18485522270202637
            ]
        }
    ],
    "materials" : [
        {
            "doubleSided" : true,
            "name" : "Material.006",
            "pbrMetallicRoughness" : {
                "baseColorFactor" : [
                    0.30946898460388184,
                    0.1946178674697876,
                    0.08650048077106476,
                    1
                ],
                "metallicFactor" : 0,
                "roughnessFactor" : 0.4000000059604645
            }
        },
        {
            "doubleSided" : true,
            "name" : "Material.005",
            "pbrMetallicRoughness" : {
                "baseColorFactor" : [
                    0.35884055495262146,
                    0.22849765419960022,
                    0.10050389915704727,
                    1
                ],
                "metallicFactor" : 0,
                "roughnessFactor" : 0.4000000059604645
            }
        },
        {
            "doubleSided" : true,
            "name" : "Material.002",
            "pbrMetallicRoughness" : {
                "baseColorFactor" : [
                    0.6859572529792786,
                    0.6859572529792786,
                    0.6859572529792786,
                    1
                ],
                "metallicFactor" : 0,
                "roughnessFactor" : 0.4000000059604645
            }
        },
        {
            "doubleSided" : true,
            "name" : "Material.003",
            "pbrMetallicRoughness" : {
                "baseColorFactor" : [
                    0.6859572529792786,
                    0.6859572529792786,
                    0.6859572529792786,
                    1
                ],
                "metallicFactor" : 0,
                "roughnessFactor" : 0.4000000059604645
            }
        },
        {
            "doubleSided" : true,
            "name" : "Material.004",
            "pbrMetallicRoughness" : {
                "baseColorFactor" : [
                    0.6859572529792786,
                    0.6859572529792786,
                    0.6859572529792786,
                    1
                ],
                "metallicFactor" : 0,
                "roughnessFactor" : 0.4000000059604645
            }
        }
    ],
    "meshes" : [
        {
            "name" : "Mesh",
            "primitives" : [
                {
                    "attributes" : {
                        "POSITION" : 0,
                        "NORMAL" : 1,
                        "TEXCOORD_0" : 2
                    },
                    "indices" : 3,
                    "material" : 0
                }
            ]
        },
        {
            "name" : "Mesh.001",
            "primitives" : [
                {
                    "attributes" : {
                        "POSITION" : 4,
                        "NORMAL" : 5,
                        "TEXCOORD_0" : 6
                    },
                    "indices" : 7,
                    "material" : 1
                }
            ]
        },
        {
            "name" : "Text.002",
            "primitives" : [
                {
                    "attributes" : {
                        "POSITION" : 8,
                        "NORMAL" : 9,
                        "TEXCOORD_0" : 10
                    },
                    "indices" : 11,
                    "material" : 2
                }
            ]
        },
        {
            "name" : "Text.004",
            "primitives" : [
                {
                    "attributes" : {
                        "POSITION" : 12,
                        "NORMAL" : 13,
                        "TEXCOORD_0" : 14
                    },
                    "indices" : 15,
                    "material" : 3
                }
            ]
        },
        {
            "name" : "Text.005",
            "primitives" : [
                {
                    "attributes" : {
                        "POSITION" : 16,
                        "NORMAL" : 17,
                        "TEXCOORD_0" : 18
                    },
                    "indices" : 19,
                    "material" : 4
                }
            ]
        }
    ],
    "accessors" : [
        {
            "bufferView" : 0,
            "componentType" : 5126,
            "count" : 2811,
            "max" : [
                1.5155820846557617,
                -4.940366744995117,
                -1.3247034549713135
            ],
            "min" : [
                -1.4312641620635986,
                -5.102422714233398,
                -2.844738721847534
            ],
            "type" : "VEC3"
        },
        {
            "bufferView" : 1,
            "componentType" : 5126,
            "count" : 2811,
            "type" : "VEC3"
        },
        {
            "bufferView" : 2,
            "componentType" : 5126,
            "count" : 2811,
            "type" : "VEC2"
        },
        {
            "bufferView" : 3,
            "componentType" : 5123,
            "count" : 14622,
            "type" : "SCALAR"
        },
        {
            "bufferView" : 4,
            "componentType" : 5126,
            "count" : 465,
            "max" : [
                1.257426381111145,
                0.2117595672607422,
                1.337172508239746
            ],
            "min" : [
                -1.1311739683151245,
                -0.16013669967651367,
                -1.3375061750411987
            ],
            "type" : "VEC3"
        },
        {
            "bufferView" : 5,
            "componentType" : 5126,
            "count" : 465,
            "type" : "VEC3"
        },
        {
            "bufferView" : 6,
            "componentType" : 5126,
            "count" : 465,
            "type" : "VEC2"
        },
        {
            "bufferView" : 7,
            "componentType" : 5123,
            "count" : 2400,
            "type" : "SCALAR"
        },
        {
            "bufferView" : 8,
            "componentType" : 5126,
            "count" : 3399,
            "max" : [
                7,
                0,
                0.23000000417232513
            ],
            "min" : [
                -6.931000232696533,
                0,
                -0.6910000443458557
            ],
            "type" : "VEC3"
        },
        {
            "bufferView" : 9,
            "componentType" : 5126,
            "count" : 3399,
            "type" : "VEC3"
        },
        {
            "bufferView" : 10,
            "componentType" : 5126,
            "count" : 3399,
            "type" : "VEC2"
        },
        {
            "bufferView" : 11,
            "componentType" : 5123,
            "count" : 7533,
            "type" : "SCALAR"
        },
        {
            "bufferView" : 12,
            "componentType" : 5126,
            "count" : 4946,
            "max" : [
                6.08750057220459,
                0,
                1.3300000429153442
            ],
            "min" : [
                -6.070499897003174,
                0,
                -0.6910000443458557
            ],
            "type" : "VEC3"
        },
        {
            "bufferView" : 13,
            "componentType" : 5126,
            "count" : 4946,
            "type" : "VEC3"
        },
        {
            "bufferView" : 14,
            "componentType" : 5126,
            "count" : 4946,
            "type" : "VEC2"
        },
        {
            "bufferView" : 15,
            "componentType" : 5123,
            "count" : 11070,
            "type" : "SCALAR"
        },
        {
            "bufferView" : 16,
            "componentType" : 5126,
            "count" : 2909,
            "max" : [
                7.095000743865967,
                0,
                0.23000000417232513
            ],
            "min" : [
                -7.151000499725342,
                0,
                -0.6914074420928955
            ],
            "type" : "VEC3"
        },
        {
            "bufferView" : 17,
            "componentType" : 5126,
            "count" : 2909,
            "type" : "VEC3"
        },
        {
            "bufferView" : 18,
            "componentType" : 5126,
            "count" : 2909,
            "type" : "VEC2"
        },
        {
            "bufferView" : 19,
            "componentType" : 5123,
            "count" : 6414,
            "type" : "SCALAR"
        }
    ],
    "bufferViews" : [
        {
            "buffer" : 0,
            "byteLength" : 33732,
            "byteOffset" : 0
        },
        {
            "buffer" : 0,
            "byteLength" : 33732,
            "byteOffset" : 33732
        },
        {
            "buffer" : 0,
            "byteLength" : 22488,
            "byteOffset" : 67464
        },
        {
            "buffer" : 0,
            "byteLength" : 29244,
            "byteOffset" : 89952
        },
        {
            "buffer" : 0,
            "byteLength" : 5580,
            "byteOffset" : 119196
        },
        {
            "buffer" : 0,
            "byteLength" : 5580,
            "byteOffset" : 124776
        },
        {
            "buffer" : 0,
            "byteLength" : 3720,
            "byteOffset" : 130356
        },
        {
            "buffer" : 0,
            "byteLength" : 4800,
            "byteOffset" : 134076
        },
        {
            "buffer" : 0,
            "byteLength" : 40788,
            "byteOffset" : 138876
        },
        {
            "buffer" : 0,
            "byteLength" : 40788,
            "byteOffset" : 179664
        },
        {
            "buffer" : 0,
            "byteLength" : 27192,
            "byteOffset" : 220452
        },
        {
            "buffer" : 0,
            "byteLength" : 15066,
            "byteOffset" : 247644
        },
        {
            "buffer" : 0,
            "byteLength" : 59352,
            "byteOffset" : 262712
        },
        {
            "buffer" : 0,
            "byteLength" : 59352,
            "byteOffset" : 322064
        },
        {
            "buffer" : 0,
            "byteLength" : 39568,
            "byteOffset" : 381416
        },
        {
            "buffer" : 0,
            "byteLength" : 22140,
            "byteOffset" : 420984
        },
        {
            "buffer" : 0,
            "byteLength" : 34908,
            "byteOffset" : 443124
        },
        {
            "buffer" : 0,
            "byteLength" : 34908,
            "byteOffset" : 478032
        },
        {
            "buffer" : 0,
            "byteLength" : 23272,
            "byteOffset" : 512940
        },
        {
            "buffer" : 0,
            "byteLength" : 12828,
            "byteOffset" : 536212
        }
    ],
    "buffers" : [
        {
            "byteLength" : 549040,
            "uri" : "data:application/octet-stream;base64,"
        }
    ]
}
