{
    "asset" : {
        "generator" : "Khronos glTF Blender I/O v1.5.17",
        "version" : "2.0"
    },
    "scene" : 0,
    "scenes" : [
        {
            "name" : "Scene",
            "nodes" : [
                0,
                1,
                2,
                3,
                4,
                5
            ]
        }
    ],
    "nodes" : [
        {
            "name" : "Camera",
            "rotation" : [
                0.483536034822464,
                0.33687159419059753,
                -0.20870360732078552,
                0.7804827094078064
            ],
            "translation" : [
                7.358891487121582,
                4.958309173583984,
                6.925790786743164
            ]
        },
        {
            "name" : "Light.001",
            "rotation" : [
                0.16907575726509094,
                0.7558804154396057,
                -0.27217137813568115,
                0.5709474086761475
            ],
            "translation" : [
                4.076245307922363,
                5.903861999511719,
                -1.0054539442062378
            ]
        },
        {
            "mesh" : 0,
            "name" : "Text.001",
            "rotation" : [
                -7.676387758692726e-05,
                -0.7071068286895752,
                0.7071068286895752,
                7.699428533669561e-05
            ],
            "scale" : [
                0.1889471411705017,
                0.18894721567630768,
                0.1889471411705017
            ],
            "translation" : [
                -0.04773469269275665,
                1.2138699293136597,
                -0.22499999403953552
            ]
        },
        {
            "name" : "group4",
            "translation" : [
                -4.907970428466797,
                1.3707365989685059,
                0
            ]
        },
        {
            "mesh" : 1,
            "name" : "pCube4",
            "rotation" : [
                0,
                0.7071067094802856,
                -0.7071068286895752,
                -3.0908616110991716e-08
            ],
            "scale" : [
                0.17769519984722137,
                0.17769519984722137,
                0.17769519984722137
            ]
        },
        {
            "mesh" : 2,
            "name" : "Text.002",
            "rotation" : [
                0.49994564056396484,
                -0.49994561076164246,
                0.5000543594360352,
                0.5000543594360352
            ],
            "scale" : [
                0.1889471411705017,
                0.18894721567630768,
                0.1889471411705017
            ],
            "translation" : [
                -0.23999999463558197,
                1.678383469581604,
                -0.04674708843231201
            ]
        }
    ],
    "materials" : [
        {
            "doubleSided" : true,
            "name" : "Material",
            "pbrMetallicRoughness" : {
                "baseColorFactor" : [
                    0.6859572529792786,
                    0.6859572529792786,
                    0.6859572529792786,
                    1
                ],
                "metallicFactor" : 0,
                "roughnessFactor" : 0.4000000059604645
            }
        },
        {
            "doubleSided" : true,
            "name" : "Material.005",
            "pbrMetallicRoughness" : {
                "baseColorFactor" : [
                    0.30946898460388184,
                    0.1946178674697876,
                    0.08650048077106476,
                    1
                ],
                "metallicFactor" : 0,
                "roughnessFactor" : 0.4000000059604645
            }
        },
        {
            "doubleSided" : true,
            "name" : "Material.003",
            "pbrMetallicRoughness" : {
                "baseColorFactor" : [
                    0.6859572529792786,
                    0.6859572529792786,
                    0.6859572529792786,
                    1
                ],
                "metallicFactor" : 0,
                "roughnessFactor" : 0.4000000059604645
            }
        }
    ],
    "meshes" : [
        {
            "name" : "Text.004",
            "primitives" : [
                {
                    "attributes" : {
                        "POSITION" : 0,
                        "NORMAL" : 1,
                        "TEXCOORD_0" : 2
                    },
                    "indices" : 3,
                    "material" : 0
                }
            ]
        },
        {
            "name" : "Mesh.082",
            "primitives" : [
                {
                    "attributes" : {
                        "POSITION" : 4,
                        "NORMAL" : 5,
                        "TEXCOORD_0" : 6
                    },
                    "indices" : 7,
                    "material" : 1
                }
            ]
        },
        {
            "name" : "Text.005",
            "primitives" : [
                {
                    "attributes" : {
                        "POSITION" : 8,
                        "NORMAL" : 9,
                        "TEXCOORD_0" : 10
                    },
                    "indices" : 11,
                    "material" : 2
                }
            ]
        }
    ],
    "accessors" : [
        {
            "bufferView" : 0,
            "componentType" : 5126,
            "count" : 716,
            "max" : [
                1.8921998739242554,
                0,
                -3.0855000019073486
            ],
            "min" : [
                -1.5918004512786865,
                0,
                -3.8222999572753906
            ],
            "type" : "VEC3"
        },
        {
            "bufferView" : 1,
            "componentType" : 5126,
            "count" : 716,
            "type" : "VEC3"
        },
        {
            "bufferView" : 2,
            "componentType" : 5126,
            "count" : 716,
            "type" : "VEC2"
        },
        {
            "bufferView" : 3,
            "componentType" : 5123,
            "count" : 1551,
            "type" : "SCALAR"
        },
        {
            "bufferView" : 4,
            "componentType" : 5126,
            "count" : 188,
            "max" : [
                4.726795196533203,
                4.246048927307129,
                -0.015192985534667969
            ],
            "min" : [
                -2.0711727142333984,
                -2.5519189834594727,
                -16.011882781982422
            ],
            "type" : "VEC3"
        },
        {
            "bufferView" : 5,
            "componentType" : 5126,
            "count" : 188,
            "type" : "VEC3"
        },
        {
            "bufferView" : 6,
            "componentType" : 5126,
            "count" : 188,
            "type" : "VEC2"
        },
        {
            "bufferView" : 7,
            "componentType" : 5123,
            "count" : 342,
            "type" : "SCALAR"
        },
        {
            "bufferView" : 8,
            "componentType" : 5126,
            "count" : 436,
            "max" : [
                2.336199998855591,
                0,
                -3.2623002529144287
            ],
            "min" : [
                -2.029400587081909,
                0,
                -3.8222999572753906
            ],
            "type" : "VEC3"
        },
        {
            "bufferView" : 9,
            "componentType" : 5126,
            "count" : 436,
            "type" : "VEC3"
        },
        {
            "bufferView" : 10,
            "componentType" : 5126,
            "count" : 436,
            "type" : "VEC2"
        },
        {
            "bufferView" : 11,
            "componentType" : 5123,
            "count" : 918,
            "type" : "SCALAR"
        }
    ],
    "bufferViews" : [
        {
            "buffer" : 0,
            "byteLength" : 8592,
            "byteOffset" : 0
        },
        {
            "buffer" : 0,
            "byteLength" : 8592,
            "byteOffset" : 8592
        },
        {
            "buffer" : 0,
            "byteLength" : 5728,
            "byteOffset" : 17184
        },
        {
            "buffer" : 0,
            "byteLength" : 3102,
            "byteOffset" : 22912
        },
        {
            "buffer" : 0,
            "byteLength" : 2256,
            "byteOffset" : 26016
        },
        {
            "buffer" : 0,
            "byteLength" : 2256,
            "byteOffset" : 28272
        },
        {
            "buffer" : 0,
            "byteLength" : 1504,
            "byteOffset" : 30528
        },
        {
            "buffer" : 0,
            "byteLength" : 684,
            "byteOffset" : 32032
        },
        {
            "buffer" : 0,
            "byteLength" : 5232,
            "byteOffset" : 32716
        },
        {
            "buffer" : 0,
            "byteLength" : 5232,
            "byteOffset" : 37948
        },
        {
            "buffer" : 0,
            "byteLength" : 3488,
            "byteOffset" : 43180
        },
        {
            "buffer" : 0,
            "byteLength" : 1836,
            "byteOffset" : 46668
        }
    ],
    "buffers" : [
        {
            "byteLength" : 48504,
            "uri" : "data:application/octet-stream;base64,"
        }
    ]
}
