{
    "asset" : {
        "generator" : "Khronos glTF Blender I/O v1.5.17",
        "version" : "2.0"
    },
    "scene" : 0,
    "scenes" : [
        {
            "name" : "Scene",
            "nodes" : [
                0,
                1,
                5,
                12
            ]
        }
    ],
    "nodes" : [
        {
            "name" : "Camera",
            "rotation" : [
                0.483536034822464,
                0.33687159419059753,
                -0.20870360732078552,
                0.7804827094078064
            ],
            "translation" : [
                7.358891487121582,
                4.958309173583984,
                6.925790786743164
            ]
        },
        {
            "name" : "Light.001",
            "rotation" : [
                0.16907575726509094,
                0.7558804154396057,
                -0.27217137813568115,
                0.5709474086761475
            ],
            "translation" : [
                4.076245307922363,
                5.903861999511719,
                -1.0054539442062378
            ]
        },
        {
            "mesh" : 0,
            "name" : "Linkedin-Logo-300x188",
            "scale" : [
                73.916015625,
                73.916015625,
                73.916015625
            ],
            "translation" : [
                12.977473258972168,
                17.567577362060547,
                -101.20023345947266
            ]
        },
        {
            "mesh" : 1,
            "name" : "Text",
            "scale" : [
                18.24871253967285,
                18.24871253967285,
                18.24871253967285
            ],
            "translation" : [
                14.90888500213623,
                17.28973388671875,
                -53.4223518371582
            ]
        },
        {
            "mesh" : 2,
            "name" : "Text.001",
            "scale" : [
                15.627799034118652,
                15.627799034118652,
                15.627799034118652
            ],
            "translation" : [
                11.910750389099121,
                17.56756591796875,
                -4.432170867919922
            ]
        },
        {
            "children" : [
                2,
                3,
                4
            ],
            "mesh" : 3,
            "name" : "linkedin.001",
            "rotation" : [
                0,
                0.7071067094802856,
                -0.7071068286895752,
                -3.0908616110991716e-08
            ],
            "scale" : [
                0.035991787910461426,
                0.035991787910461426,
                0.035991787910461426
            ],
            "translation" : [
                0.5199999809265137,
                4.300000190734863,
                -0.23999999463558197
            ]
        },
        {
            "mesh" : 4,
            "name" : "Cube",
            "translation" : [
                0,
                -12.622200012207031,
                35.49129867553711
            ]
        },
        {
            "name" : "fd"
        },
        {
            "mesh" : 5,
            "name" : "linkedin.002",
            "translation" : [
                0,
                0,
                0.737047016620636
            ]
        },
        {
            "mesh" : 6,
            "name" : "linkedin.003",
            "translation" : [
                0,
                0,
                19.856800079345703
            ]
        },
        {
            "mesh" : 7,
            "name" : "linkedin",
            "translation" : [
                0,
                0,
                -20.593799591064453
            ]
        },
        {
            "children" : [
                8,
                9,
                10
            ],
            "name" : "Null_1",
            "translation" : [
                0,
                0,
                -1.8426200151443481
            ]
        },
        {
            "children" : [
                6,
                7,
                11
            ],
            "name" : "Untitled 6",
            "rotation" : [
                0,
                0.7071067094802856,
                -0.7071068286895752,
                -3.0908616110991716e-08
            ],
            "scale" : [
                0.046910159289836884,
                0.046910159289836884,
                0.046910159289836884
            ],
            "translation" : [
                0,
                6.199999809265137,
                -0.5699999928474426
            ]
        }
    ],
    "materials" : [
        {
            "alphaMode" : "BLEND",
            "doubleSided" : true,
            "name" : "Linkedin-Logo-300x188",
            "pbrMetallicRoughness" : {
                "baseColorTexture" : {
                    "index" : 0
                },
                "metallicFactor" : 0,
                "roughnessFactor" : 0.5
            }
        },
        {
            "doubleSided" : true,
            "name" : "Material",
            "pbrMetallicRoughness" : {
                "baseColorFactor" : [
                    0.6859572529792786,
                    0.6859572529792786,
                    0.6859572529792786,
                    1
                ],
                "metallicFactor" : 0,
                "roughnessFactor" : 0.4000000059604645
            }
        },
        {
            "doubleSided" : true,
            "name" : "Material.007",
            "pbrMetallicRoughness" : {
                "baseColorFactor" : [
                    0.6859572529792786,
                    0.6859572529792786,
                    0.6859572529792786,
                    1
                ],
                "metallicFactor" : 0,
                "roughnessFactor" : 0.4000000059604645
            }
        },
        {
            "doubleSided" : true,
            "name" : "Material.005",
            "pbrMetallicRoughness" : {
                "baseColorFactor" : [
                    0.30946898460388184,
                    0.1946178674697876,
                    0.08650048077106476,
                    1
                ],
                "metallicFactor" : 0,
                "roughnessFactor" : 0.4000000059604645
            }
        },
        {
            "doubleSided" : true,
            "name" : "Material.006",
            "pbrMetallicRoughness" : {
                "baseColorFactor" : [
                    0.03032790683209896,
                    0.1466883271932602,
                    0.467201828956604,
                    1
                ],
                "metallicFactor" : 0,
                "roughnessFactor" : 0.4000000059604645
            }
        },
        {
            "doubleSided" : true,
            "name" : "Material.004",
            "pbrMetallicRoughness" : {
                "baseColorFactor" : [
                    0.6859572529792786,
                    0.6859572529792786,
                    0.6859572529792786,
                    1
                ],
                "metallicFactor" : 0,
                "roughnessFactor" : 0.4000000059604645
            }
        }
    ],
    "meshes" : [
        {
            "name" : "Linkedin-Logo-300x188",
            "primitives" : [
                {
                    "attributes" : {
                        "POSITION" : 0,
                        "NORMAL" : 1,
                        "TEXCOORD_0" : 2
                    },
                    "indices" : 3,
                    "material" : 0
                }
            ]
        },
        {
            "name" : "Text.003",
            "primitives" : [
                {
                    "attributes" : {
                        "POSITION" : 4,
                        "NORMAL" : 5,
                        "TEXCOORD_0" : 6
                    },
                    "indices" : 7,
                    "material" : 1
                }
            ]
        },
        {
            "name" : "Text.004",
            "primitives" : [
                {
                    "attributes" : {
                        "POSITION" : 8,
                        "NORMAL" : 9,
                        "TEXCOORD_0" : 10
                    },
                    "indices" : 11,
                    "material" : 2
                }
            ]
        },
        {
            "name" : "message_board",
            "primitives" : [
                {
                    "attributes" : {
                        "POSITION" : 12,
                        "NORMAL" : 13,
                        "TEXCOORD_0" : 14
                    },
                    "indices" : 15,
                    "material" : 3
                }
            ]
        },
        {
            "name" : "Cube-mesh",
            "primitives" : [
                {
                    "attributes" : {
                        "POSITION" : 16,
                        "NORMAL" : 17,
                        "TEXCOORD_0" : 18,
                        "TEXCOORD_1" : 19
                    },
                    "indices" : 20,
                    "material" : 3
                }
            ]
        },
        {
            "name" : "Null-mesh",
            "primitives" : [
                {
                    "attributes" : {
                        "POSITION" : 21,
                        "NORMAL" : 22,
                        "TEXCOORD_0" : 23
                    },
                    "indices" : 24,
                    "material" : 4
                }
            ]
        },
        {
            "name" : "Null_1_2-mesh",
            "primitives" : [
                {
                    "attributes" : {
                        "POSITION" : 25,
                        "NORMAL" : 26,
                        "TEXCOORD_0" : 27
                    },
                    "indices" : 28,
                    "material" : 5
                }
            ]
        },
        {
            "name" : "Null_3-mesh",
            "primitives" : [
                {
                    "attributes" : {
                        "POSITION" : 29,
                        "NORMAL" : 30,
                        "TEXCOORD_0" : 31
                    },
                    "indices" : 32,
                    "material" : 4
                }
            ]
        }
    ],
    "textures" : [
        {
            "sampler" : 0,
            "source" : 0
        }
    ],
    "images" : [
        {
            "bufferView" : 4,
            "mimeType" : "image/png",
            "name" : "Linkedin-Logo-300x188"
        }
    ],
    "accessors" : [
        {
            "bufferView" : 0,
            "componentType" : 5126,
            "count" : 4,
            "max" : [
                0.7978723645210266,
                0,
                0.5
            ],
            "min" : [
                -0.7978723645210266,
                0,
                -0.5
            ],
            "type" : "VEC3"
        },
        {
            "bufferView" : 1,
            "componentType" : 5126,
            "count" : 4,
            "type" : "VEC3"
        },
        {
            "bufferView" : 2,
            "componentType" : 5126,
            "count" : 4,
            "type" : "VEC2"
        },
        {
            "bufferView" : 3,
            "componentType" : 5123,
            "count" : 6,
            "type" : "SCALAR"
        },
        {
            "bufferView" : 5,
            "componentType" : 5126,
            "count" : 2204,
            "max" : [
                3.9200003147125244,
                0,
                0.5300000309944153
            ],
            "min" : [
                -3.899000406265259,
                0,
                -0.42900002002716064
            ],
            "type" : "VEC3"
        },
        {
            "bufferView" : 6,
            "componentType" : 5126,
            "count" : 2204,
            "type" : "VEC3"
        },
        {
            "bufferView" : 7,
            "componentType" : 5126,
            "count" : 2204,
            "type" : "VEC2"
        },
        {
            "bufferView" : 8,
            "componentType" : 5123,
            "count" : 4941,
            "type" : "SCALAR"
        },
        {
            "bufferView" : 9,
            "componentType" : 5126,
            "count" : 505,
            "max" : [
                2.246000051498413,
                0,
                0.30900001525878906
            ],
            "min" : [
                -2.2729997634887695,
                0,
                -0.39100003242492676
            ],
            "type" : "VEC3"
        },
        {
            "bufferView" : 10,
            "componentType" : 5126,
            "count" : 505,
            "type" : "VEC3"
        },
        {
            "bufferView" : 11,
            "componentType" : 5126,
            "count" : 505,
            "type" : "VEC2"
        },
        {
            "bufferView" : 12,
            "componentType" : 5123,
            "count" : 1044,
            "type" : "SCALAR"
        },
        {
            "bufferView" : 13,
            "componentType" : 5126,
            "count" : 1850,
            "max" : [
                89.48860168457031,
                5,
                119.28679656982422
            ],
            "min" : [
                -75.82949829101562,
                -14.861700057983398,
                -91.47019958496094
            ],
            "type" : "VEC3"
        },
        {
            "bufferView" : 14,
            "componentType" : 5126,
            "count" : 1850,
            "type" : "VEC3"
        },
        {
            "bufferView" : 15,
            "componentType" : 5126,
            "count" : 1850,
            "type" : "VEC2"
        },
        {
            "bufferView" : 16,
            "componentType" : 5123,
            "count" : 3012,
            "type" : "SCALAR"
        },
        {
            "bufferView" : 17,
            "componentType" : 5126,
            "count" : 40,
            "max" : [
                10.809096336364746,
                6.543769359588623,
                96.91496276855469
            ],
            "min" : [
                -10.809096336364746,
                -6.543769359588623,
                -96.91496276855469
            ],
            "type" : "VEC3"
        },
        {
            "bufferView" : 18,
            "componentType" : 5126,
            "count" : 40,
            "type" : "VEC3"
        },
        {
            "bufferView" : 19,
            "componentType" : 5126,
            "count" : 40,
            "type" : "VEC2"
        },
        {
            "bufferView" : 20,
            "componentType" : 5126,
            "count" : 40,
            "type" : "VEC2"
        },
        {
            "bufferView" : 21,
            "componentType" : 5123,
            "count" : 60,
            "type" : "SCALAR"
        },
        {
            "bufferView" : 22,
            "componentType" : 5126,
            "count" : 66,
            "max" : [
                66.19825744628906,
                6.017648220062256,
                21.862323760986328
            ],
            "min" : [
                -66.36314392089844,
                -6.017648220062256,
                -22.28860092163086
            ],
            "type" : "VEC3"
        },
        {
            "bufferView" : 23,
            "componentType" : 5126,
            "count" : 66,
            "type" : "VEC3"
        },
        {
            "bufferView" : 24,
            "componentType" : 5126,
            "count" : 66,
            "type" : "VEC2"
        },
        {
            "bufferView" : 25,
            "componentType" : 5123,
            "count" : 144,
            "type" : "SCALAR"
        },
        {
            "bufferView" : 26,
            "componentType" : 5126,
            "count" : 63,
            "max" : [
                69.60144805908203,
                6.017648220062256,
                -39.1894416809082
            ],
            "min" : [
                -70.29669189453125,
                -6.017648220062256,
                -69.11141204833984
            ],
            "type" : "VEC3"
        },
        {
            "bufferView" : 27,
            "componentType" : 5126,
            "count" : 63,
            "type" : "VEC3"
        },
        {
            "bufferView" : 28,
            "componentType" : 5126,
            "count" : 63,
            "type" : "VEC2"
        },
        {
            "bufferView" : 29,
            "componentType" : 5123,
            "count" : 144,
            "type" : "SCALAR"
        },
        {
            "bufferView" : 30,
            "componentType" : 5126,
            "count" : 63,
            "max" : [
                61.80072784423828,
                6.017648220062256,
                69.91830444335938
            ],
            "min" : [
                -66.59637451171875,
                -6.017648220062256,
                44.93842697143555
            ],
            "type" : "VEC3"
        },
        {
            "bufferView" : 31,
            "componentType" : 5126,
            "count" : 63,
            "type" : "VEC3"
        },
        {
            "bufferView" : 32,
            "componentType" : 5126,
            "count" : 63,
            "type" : "VEC2"
        },
        {
            "bufferView" : 33,
            "componentType" : 5123,
            "count" : 144,
            "type" : "SCALAR"
        }
    ],
    "bufferViews" : [
        {
            "buffer" : 0,
            "byteLength" : 48,
            "byteOffset" : 0
        },
        {
            "buffer" : 0,
            "byteLength" : 48,
            "byteOffset" : 48
        },
        {
            "buffer" : 0,
            "byteLength" : 32,
            "byteOffset" : 96
        },
        {
            "buffer" : 0,
            "byteLength" : 12,
            "byteOffset" : 128
        },
        {
            "buffer" : 0,
            "byteLength" : 7299,
            "byteOffset" : 140
        },
        {
            "buffer" : 0,
            "byteLength" : 26448,
            "byteOffset" : 7440
        },
        {
            "buffer" : 0,
            "byteLength" : 26448,
            "byteOffset" : 33888
        },
        {
            "buffer" : 0,
            "byteLength" : 17632,
            "byteOffset" : 60336
        },
        {
            "buffer" : 0,
            "byteLength" : 9882,
            "byteOffset" : 77968
        },
        {
            "buffer" : 0,
            "byteLength" : 6060,
            "byteOffset" : 87852
        },
        {
            "buffer" : 0,
            "byteLength" : 6060,
            "byteOffset" : 93912
        },
        {
            "buffer" : 0,
            "byteLength" : 4040,
            "byteOffset" : 99972
        },
        {
            "buffer" : 0,
            "byteLength" : 2088,
            "byteOffset" : 104012
        },
        {
            "buffer" : 0,
            "byteLength" : 22200,
            "byteOffset" : 106100
        },
        {
            "buffer" : 0,
            "byteLength" : 22200,
            "byteOffset" : 128300
        },
        {
            "buffer" : 0,
            "byteLength" : 14800,
            "byteOffset" : 150500
        },
        {
            "buffer" : 0,
            "byteLength" : 6024,
            "byteOffset" : 165300
        },
        {
            "buffer" : 0,
            "byteLength" : 480,
            "byteOffset" : 171324
        },
        {
            "buffer" : 0,
            "byteLength" : 480,
            "byteOffset" : 171804
        },
        {
            "buffer" : 0,
            "byteLength" : 320,
            "byteOffset" : 172284
        },
        {
            "buffer" : 0,
            "byteLength" : 320,
            "byteOffset" : 172604
        },
        {
            "buffer" : 0,
            "byteLength" : 120,
            "byteOffset" : 172924
        },
        {
            "buffer" : 0,
            "byteLength" : 792,
            "byteOffset" : 173044
        },
        {
            "buffer" : 0,
            "byteLength" : 792,
            "byteOffset" : 173836
        },
        {
            "buffer" : 0,
            "byteLength" : 528,
            "byteOffset" : 174628
        },
        {
            "buffer" : 0,
            "byteLength" : 288,
            "byteOffset" : 175156
        },
        {
            "buffer" : 0,
            "byteLength" : 756,
            "byteOffset" : 175444
        },
        {
            "buffer" : 0,
            "byteLength" : 756,
            "byteOffset" : 176200
        },
        {
            "buffer" : 0,
            "byteLength" : 504,
            "byteOffset" : 176956
        },
        {
            "buffer" : 0,
            "byteLength" : 288,
            "byteOffset" : 177460
        },
        {
            "buffer" : 0,
            "byteLength" : 756,
            "byteOffset" : 177748
        },
        {
            "buffer" : 0,
            "byteLength" : 756,
            "byteOffset" : 178504
        },
        {
            "buffer" : 0,
            "byteLength" : 504,
            "byteOffset" : 179260
        },
        {
            "buffer" : 0,
            "byteLength" : 288,
            "byteOffset" : 179764
        }
    ],
    "samplers" : [
        {
            "magFilter" : 9729,
            "minFilter" : 9987,
            "wrapS" : 33071,
            "wrapT" : 33071
        }
    ],
    "buffers" : [
        {
            "byteLength" : 180052,
            "uri" : "data:application/octet-stream;base64,"
        }
    ]
}
