{
    "asset" : {
        "generator" : "Khronos glTF Blender I/O v1.5.17",
        "version" : "2.0"
    },
    "scene" : 0,
    "scenes" : [
        {
            "name" : "Scene",
            "nodes" : [
                10,
                11,
                12
            ]
        }
    ],
    "nodes" : [
        {
            "name" : "Icosphere_4",
            "scale" : [
                0.2704148292541504,
                0.2704148292541504,
                0.2704148292541504
            ],
            "translation" : [
                0,
                0.5591298341751099,
                0.9915714859962463
            ]
        },
        {
            "mesh" : 0,
            "name" : "Object_4"
        },
        {
            "mesh" : 1,
            "name" : "Object_5"
        },
        {
            "mesh" : 2,
            "name" : "Object_6"
        },
        {
            "children" : [
                1,
                2,
                3
            ],
            "name" : "Landscape.005_1"
        },
        {
            "mesh" : 3,
            "name" : "Object_8"
        },
        {
            "children" : [
                5
            ],
            "name" : "Landscape_plane.002_2"
        },
        {
            "name" : "Tree_3",
            "rotation" : [
                0,
                0,
                -0.7071068286895752,
                0.7071068286895752
            ],
            "scale" : [
                0.0062822625041007996,
                0.0154200978577137,
                0.0062822625041007996
            ],
            "translation" : [
                -1.5322238206863403,
                0.08963850140571594,
                -1.0286142826080322
            ]
        },
        {
            "children" : [
                0,
                4,
                6,
                7
            ],
            "name" : "GLTF_SceneRootNode",
            "rotation" : [
                0.7071068286895752,
                0,
                0,
                0.7071068286895752
            ]
        },
        {
            "children" : [
                8
            ],
            "name" : "root"
        },
        {
            "children" : [
                9
            ],
            "name" : "Sketchfab_model",
            "rotation" : [
                -0.7071068286895752,
                0,
                0,
                0.7071068286895752
            ],
            "scale" : [
                29.615209579467773,
                29.615209579467773,
                29.615209579467773
            ]
        },
        {
            "name" : "Light",
            "rotation" : [
                0.16907575726509094,
                0.7558803558349609,
                -0.27217137813568115,
                0.570947527885437
            ],
            "translation" : [
                4.076245307922363,
                5.903861999511719,
                -1.0054539442062378
            ]
        },
        {
            "name" : "Camera",
            "rotation" : [
                0.483536034822464,
                0.33687159419059753,
                -0.20870360732078552,
                0.7804827094078064
            ],
            "translation" : [
                7.358891487121582,
                4.958309173583984,
                6.925790786743164
            ]
        }
    ],
    "materials" : [
        {
            "doubleSided" : true,
            "name" : "Material.001",
            "pbrMetallicRoughness" : {
                "baseColorFactor" : [
                    0.05916079878807068,
                    0.20189900696277618,
                    0.07426240295171738,
                    1
                ],
                "metallicFactor" : 0,
                "roughnessFactor" : 0.5
            }
        },
        {
            "doubleSided" : true,
            "name" : "Material.002",
            "pbrMetallicRoughness" : {
                "baseColorFactor" : [
                    0.1106870025396347,
                    0.1106870025396347,
                    0.1106870025396347,
                    1
                ],
                "metallicFactor" : 0,
                "roughnessFactor" : 0.5
            }
        },
        {
            "doubleSided" : true,
            "name" : "Material.003",
            "pbrMetallicRoughness" : {
                "roughnessFactor" : 0.33842799067497253
            }
        },
        {
            "doubleSided" : true,
            "name" : "Material.006",
            "pbrMetallicRoughness" : {
                "baseColorFactor" : [
                    0.800000011920929,
                    0.800000011920929,
                    0.800000011920929,
                    1
                ],
                "metallicFactor" : 0,
                "roughnessFactor" : 0
            }
        }
    ],
    "meshes" : [
        {
            "name" : "Object_0",
            "primitives" : [
                {
                    "attributes" : {
                        "POSITION" : 0,
                        "NORMAL" : 1
                    },
                    "indices" : 2,
                    "material" : 0
                }
            ]
        },
        {
            "name" : "Object_1",
            "primitives" : [
                {
                    "attributes" : {
                        "POSITION" : 3,
                        "NORMAL" : 4
                    },
                    "indices" : 5,
                    "material" : 1
                }
            ]
        },
        {
            "name" : "Object_2",
            "primitives" : [
                {
                    "attributes" : {
                        "POSITION" : 6,
                        "NORMAL" : 7
                    },
                    "indices" : 8,
                    "material" : 2
                }
            ]
        },
        {
            "name" : "Object_3",
            "primitives" : [
                {
                    "attributes" : {
                        "POSITION" : 9,
                        "NORMAL" : 10
                    },
                    "indices" : 11,
                    "material" : 3
                }
            ]
        }
    ],
    "accessors" : [
        {
            "bufferView" : 0,
            "componentType" : 5126,
            "count" : 42996,
            "max" : [
                1,
                0.0819648951292038,
                1
            ],
            "min" : [
                -1,
                -0.10134037584066391,
                -1
            ],
            "type" : "VEC3"
        },
        {
            "bufferView" : 1,
            "componentType" : 5126,
            "count" : 42996,
            "type" : "VEC3"
        },
        {
            "bufferView" : 2,
            "componentType" : 5123,
            "count" : 43665,
            "type" : "SCALAR"
        },
        {
            "bufferView" : 3,
            "componentType" : 5126,
            "count" : 3684,
            "max" : [
                0.7222434282302856,
                0.11146474629640579,
                0.8143563866615295
            ],
            "min" : [
                -0.8034974932670593,
                -0.10014043003320694,
                -0.7072969675064087
            ],
            "type" : "VEC3"
        },
        {
            "bufferView" : 4,
            "componentType" : 5126,
            "count" : 3684,
            "type" : "VEC3"
        },
        {
            "bufferView" : 5,
            "componentType" : 5123,
            "count" : 3924,
            "type" : "SCALAR"
        },
        {
            "bufferView" : 6,
            "componentType" : 5126,
            "count" : 502,
            "max" : [
                0.35455626249313354,
                0.11303657293319702,
                0.6229111552238464
            ],
            "min" : [
                -0.5586824417114258,
                0.011893791146576405,
                -0.13504692912101746
            ],
            "type" : "VEC3"
        },
        {
            "bufferView" : 7,
            "componentType" : 5126,
            "count" : 502,
            "type" : "VEC3"
        },
        {
            "bufferView" : 8,
            "componentType" : 5123,
            "count" : 540,
            "type" : "SCALAR"
        },
        {
            "bufferView" : 9,
            "componentType" : 5126,
            "count" : 10404,
            "max" : [
                1.0074026584625244,
                -0.014898095279932022,
                1.0071048736572266
            ],
            "min" : [
                -1.0103492736816406,
                -0.04597441107034683,
                -1.006732702255249
            ],
            "type" : "VEC3"
        },
        {
            "bufferView" : 10,
            "componentType" : 5126,
            "count" : 10404,
            "type" : "VEC3"
        },
        {
            "bufferView" : 11,
            "componentType" : 5123,
            "count" : 61206,
            "type" : "SCALAR"
        }
    ],
    "bufferViews" : [
        {
            "buffer" : 0,
            "byteLength" : 515952,
            "byteOffset" : 0
        },
        {
            "buffer" : 0,
            "byteLength" : 515952,
            "byteOffset" : 515952
        },
        {
            "buffer" : 0,
            "byteLength" : 87330,
            "byteOffset" : 1031904
        },
        {
            "buffer" : 0,
            "byteLength" : 44208,
            "byteOffset" : 1119236
        },
        {
            "buffer" : 0,
            "byteLength" : 44208,
            "byteOffset" : 1163444
        },
        {
            "buffer" : 0,
            "byteLength" : 7848,
            "byteOffset" : 1207652
        },
        {
            "buffer" : 0,
            "byteLength" : 6024,
            "byteOffset" : 1215500
        },
        {
            "buffer" : 0,
            "byteLength" : 6024,
            "byteOffset" : 1221524
        },
        {
            "buffer" : 0,
            "byteLength" : 1080,
            "byteOffset" : 1227548
        },
        {
            "buffer" : 0,
            "byteLength" : 124848,
            "byteOffset" : 1228628
        },
        {
            "buffer" : 0,
            "byteLength" : 124848,
            "byteOffset" : 1353476
        },
        {
            "buffer" : 0,
            "byteLength" : 122412,
            "byteOffset" : 1478324
        }
    ],
    "buffers" : [
        {
            "byteLength" : 1600736,
            "uri" : "data:application/octet-stream;base64,"
        }
    ]
}
