{
    "asset" : {
        "generator" : "Khronos glTF Blender I/O v1.5.17",
        "version" : "2.0"
    },
    "extensionsUsed" : [
        "KHR_materials_transmission"
    ],
    "scene" : 0,
    "scenes" : [
        {
            "name" : "Scene",
            "nodes" : [
                0,
                1,
                2,
                3,
                4,
                5
            ]
        }
    ],
    "nodes" : [
        {
            "name" : "Camera",
            "rotation" : [
                0.483536034822464,
                0.33687159419059753,
                -0.20870360732078552,
                0.7804827094078064
            ],
            "translation" : [
                7.358891487121582,
                4.958309173583984,
                6.925790786743164
            ]
        },
        {
            "name" : "Light.001",
            "rotation" : [
                0.16907575726509094,
                0.7558804154396057,
                -0.27217137813568115,
                0.5709474086761475
            ],
            "translation" : [
                4.076245307922363,
                5.903861999511719,
                -1.0054539442062378
            ]
        },
        {
            "mesh" : 0,
            "name" : "Text",
            "rotation" : [
                -0.0005240634782239795,
                0.7071064710617065,
                -0.7071067094802856,
                0.0005238332669250667
            ],
            "scale" : [
                0.525242805480957,
                0.5252427458763123,
                0.525242805480957
            ],
            "translation" : [
                -0.007615923881530762,
                11.760493278503418,
                -0.20000000298023224
            ]
        },
        {
            "name" : "OctaneSky",
            "rotation" : [
                0.11170878261327744,
                -0.6982271671295166,
                0.6982271075248718,
                0.11170884966850281
            ],
            "scale" : [
                0.009999998845160007,
                0.009999998845160007,
                0.009999999776482582
            ]
        },
        {
            "mesh" : 1,
            "name" : "Plane_Plane.001",
            "rotation" : [
                0,
                0.7071067094802856,
                -0.7071068286895752,
                -3.0908616110991716e-08
            ],
            "translation" : [
                0,
                7.828291416168213,
                0
            ]
        },
        {
            "mesh" : 2,
            "name" : "Group_001",
            "rotation" : [
                -0.011335206218063831,
                0.9991301894187927,
                0.04012921079993248,
                -0.0004554319311864674
            ],
            "scale" : [
                0.0014742821222171187,
                0.0013539802748709917,
                0.0013539802748709917
            ],
            "translation" : [
                -0.03999999910593033,
                9.260565757751465,
                -0.45905929803848267
            ]
        }
    ],
    "materials" : [
        {
            "doubleSided" : true,
            "name" : "Material",
            "pbrMetallicRoughness" : {
                "baseColorFactor" : [
                    0.6859572529792786,
                    0.6859572529792786,
                    0.6859572529792786,
                    1
                ],
                "metallicFactor" : 0,
                "roughnessFactor" : 0.4000000059604645
            }
        },
        {
            "doubleSided" : true,
            "name" : "Material.005",
            "pbrMetallicRoughness" : {
                "baseColorFactor" : [
                    0.1844695508480072,
                    0.119090735912323,
                    0.05411061644554138,
                    1
                ],
                "metallicFactor" : 0,
                "roughnessFactor" : 0.4000000059604645
            }
        },
        {
            "alphaMode" : "BLEND",
            "doubleSided" : true,
            "extensions" : {
                "KHR_materials_transmission" : {
                    "transmissionFactor" : 0.29411762952804565
                }
            },
            "name" : "07627_211208_HLEKTROLOGOI_MHX",
            "pbrMetallicRoughness" : {
                "baseColorTexture" : {
                    "index" : 0
                },
                "metallicFactor" : 0
            }
        }
    ],
    "meshes" : [
        {
            "name" : "Text.003",
            "primitives" : [
                {
                    "attributes" : {
                        "POSITION" : 0,
                        "NORMAL" : 1,
                        "TEXCOORD_0" : 2
                    },
                    "indices" : 3,
                    "material" : 0
                }
            ]
        },
        {
            "name" : "Plane_Plane.001",
            "primitives" : [
                {
                    "attributes" : {
                        "POSITION" : 4,
                        "NORMAL" : 5,
                        "TEXCOORD_0" : 6
                    },
                    "indices" : 7,
                    "material" : 1
                }
            ]
        },
        {
            "name" : "Mesh.002",
            "primitives" : [
                {
                    "attributes" : {
                        "POSITION" : 8,
                        "NORMAL" : 9,
                        "TEXCOORD_0" : 10,
                        "TEXCOORD_1" : 11
                    },
                    "indices" : 12,
                    "material" : 2
                }
            ]
        }
    ],
    "textures" : [
        {
            "sampler" : 0,
            "source" : 0
        }
    ],
    "images" : [
        {
            "bufferView" : 13,
            "mimeType" : "image/jpeg",
            "name" : "07627_211208_HLEKTROLOGOI_MHX"
        }
    ],
    "accessors" : [
        {
            "bufferView" : 0,
            "componentType" : 5126,
            "count" : 198,
            "max" : [
                0.6795001029968262,
                0,
                0.3500000238418579
            ],
            "min" : [
                -0.7244998812675476,
                0,
                -0.3500000238418579
            ],
            "type" : "VEC3"
        },
        {
            "bufferView" : 1,
            "componentType" : 5126,
            "count" : 198,
            "type" : "VEC3"
        },
        {
            "bufferView" : 2,
            "componentType" : 5126,
            "count" : 198,
            "type" : "VEC2"
        },
        {
            "bufferView" : 3,
            "componentType" : 5123,
            "count" : 423,
            "type" : "SCALAR"
        },
        {
            "bufferView" : 4,
            "componentType" : 5126,
            "count" : 144,
            "max" : [
                2.0085372924804688,
                0.1496845781803131,
                7.823835849761963
            ],
            "min" : [
                -1.9360445737838745,
                -0.30919042229652405,
                -4.411436557769775
            ],
            "type" : "VEC3"
        },
        {
            "bufferView" : 5,
            "componentType" : 5126,
            "count" : 144,
            "type" : "VEC3"
        },
        {
            "bufferView" : 6,
            "componentType" : 5126,
            "count" : 144,
            "type" : "VEC2"
        },
        {
            "bufferView" : 7,
            "componentType" : 5123,
            "count" : 264,
            "type" : "SCALAR"
        },
        {
            "bufferView" : 8,
            "componentType" : 5126,
            "count" : 850,
            "max" : [
                1129.832763671875,
                1523.63330078125,
                190.62252807617188
            ],
            "min" : [
                -1121.139892578125,
                -1250.3330078125,
                -135.69488525390625
            ],
            "type" : "VEC3"
        },
        {
            "bufferView" : 9,
            "componentType" : 5126,
            "count" : 850,
            "type" : "VEC3"
        },
        {
            "bufferView" : 10,
            "componentType" : 5126,
            "count" : 850,
            "type" : "VEC2"
        },
        {
            "bufferView" : 11,
            "componentType" : 5126,
            "count" : 850,
            "type" : "VEC2"
        },
        {
            "bufferView" : 12,
            "componentType" : 5123,
            "count" : 2106,
            "type" : "SCALAR"
        }
    ],
    "bufferViews" : [
        {
            "buffer" : 0,
            "byteLength" : 2376,
            "byteOffset" : 0
        },
        {
            "buffer" : 0,
            "byteLength" : 2376,
            "byteOffset" : 2376
        },
        {
            "buffer" : 0,
            "byteLength" : 1584,
            "byteOffset" : 4752
        },
        {
            "buffer" : 0,
            "byteLength" : 846,
            "byteOffset" : 6336
        },
        {
            "buffer" : 0,
            "byteLength" : 1728,
            "byteOffset" : 7184
        },
        {
            "buffer" : 0,
            "byteLength" : 1728,
            "byteOffset" : 8912
        },
        {
            "buffer" : 0,
            "byteLength" : 1152,
            "byteOffset" : 10640
        },
        {
            "buffer" : 0,
            "byteLength" : 528,
            "byteOffset" : 11792
        },
        {
            "buffer" : 0,
            "byteLength" : 10200,
            "byteOffset" : 12320
        },
        {
            "buffer" : 0,
            "byteLength" : 10200,
            "byteOffset" : 22520
        },
        {
            "buffer" : 0,
            "byteLength" : 6800,
            "byteOffset" : 32720
        },
        {
            "buffer" : 0,
            "byteLength" : 6800,
            "byteOffset" : 39520
        },
        {
            "buffer" : 0,
            "byteLength" : 4212,
            "byteOffset" : 46320
        },
        {
            "buffer" : 0,
            "byteLength" : 118515,
            "byteOffset" : 50532
        }
    ],
    "samplers" : [
        {
            "magFilter" : 9729,
            "minFilter" : 9987
        }
    ],
    "buffers" : [
        {
            "byteLength" : 169048,
            "uri" : "data:application/octet-stream;base64,"
        }
    ]
}
