{
    "asset" : {
        "generator" : "Khronos glTF Blender I/O v1.5.17",
        "version" : "2.0"
    },
    "scene" : 0,
    "scenes" : [
        {
            "name" : "Scene",
            "nodes" : [
                0,
                1,
                2,
                3,
                4,
                5,
                6,
                7,
                8
            ]
        }
    ],
    "nodes" : [
        {
            "name" : "Camera",
            "rotation" : [
                0.483536034822464,
                0.33687159419059753,
                -0.20870360732078552,
                0.7804827094078064
            ],
            "translation" : [
                7.358891487121582,
                4.958309173583984,
                6.925790786743164
            ]
        },
        {
            "name" : "Light.001",
            "rotation" : [
                0.16907575726509094,
                0.7558804154396057,
                -0.27217137813568115,
                0.5709474086761475
            ],
            "translation" : [
                4.076245307922363,
                5.903861999511719,
                -1.0054539442062378
            ]
        },
        {
            "mesh" : 0,
            "name" : "Text",
            "rotation" : [
                0,
                0.7071067094802856,
                -0.7071068286895752,
                -1.1520230458472724e-07
            ],
            "scale" : [
                0.40308767557144165,
                0.40308767557144165,
                0.40308767557144165
            ],
            "translation" : [
                0.3307456970214844,
                7.2443037033081055,
                -0.43995943665504456
            ]
        },
        {
            "mesh" : 1,
            "name" : "message_board",
            "rotation" : [
                0,
                0.7071067094802856,
                -0.7071068286895752,
                -3.0908616110991716e-08
            ],
            "scale" : [
                0.035991787910461426,
                0.035991787910461426,
                0.035991787910461426
            ],
            "translation" : [
                0.5199999809265137,
                4.300000190734863,
                -0.23999999463558197
            ]
        },
        {
            "mesh" : 2,
            "name" : "Text.001",
            "rotation" : [
                0.0018516505369916558,
                0.7071043252944946,
                -0.7071043848991394,
                -0.0018518812721595168
            ],
            "scale" : [
                0.37881240248680115,
                0.37881240248680115,
                0.37881240248680115
            ],
            "translation" : [
                0.3630788326263428,
                6.636797904968262,
                -0.43995800614356995
            ]
        },
        {
            "mesh" : 3,
            "name" : "Text.002",
            "rotation" : [
                0.0018516507698222995,
                0.7071043252944946,
                -0.7071043848991394,
                -0.0018518815049901605
            ],
            "scale" : [
                0.35781148076057434,
                0.35781145095825195,
                0.35781148076057434
            ],
            "translation" : [
                0.4919770658016205,
                5.9834089279174805,
                -0.43995800614356995
            ]
        },
        {
            "mesh" : 4,
            "name" : "Text.003",
            "rotation" : [
                0.0018516507698222995,
                0.7071043252944946,
                -0.7071043848991394,
                -0.0018518815049901605
            ],
            "scale" : [
                0.37881240248680115,
                0.37881240248680115,
                0.37881240248680115
            ],
            "translation" : [
                0.38562333583831787,
                5.298915863037109,
                -0.43995800614356995
            ]
        },
        {
            "mesh" : 5,
            "name" : "Text.004",
            "rotation" : [
                0,
                0.7071067094802856,
                -0.7071068286895752,
                -1.1520230458472724e-07
            ],
            "scale" : [
                0.37887445092201233,
                0.37887442111968994,
                0.37887445092201233
            ],
            "translation" : [
                0.14687950909137726,
                4.65805196762085,
                -0.45995837450027466
            ]
        },
        {
            "mesh" : 6,
            "name" : "Text.005",
            "rotation" : [
                0.001851651119068265,
                0.7071043252944946,
                -0.7071043848991394,
                -0.0018518817378208041
            ],
            "scale" : [
                0.35781148076057434,
                0.35781145095825195,
                0.35781148076057434
            ],
            "translation" : [
                0.3078239858150482,
                4.008004188537598,
                -0.4299577474594116
            ]
        }
    ],
    "materials" : [
        {
            "doubleSided" : true,
            "name" : "Material",
            "pbrMetallicRoughness" : {
                "baseColorFactor" : [
                    0.6859572529792786,
                    0.6859572529792786,
                    0.6859572529792786,
                    1
                ],
                "metallicFactor" : 0,
                "roughnessFactor" : 0.4000000059604645
            }
        },
        {
            "doubleSided" : true,
            "name" : "Material.005",
            "pbrMetallicRoughness" : {
                "baseColorFactor" : [
                    0.30946898460388184,
                    0.1946178674697876,
                    0.08650048077106476,
                    1
                ],
                "metallicFactor" : 0,
                "roughnessFactor" : 0.4000000059604645
            }
        },
        {
            "doubleSided" : true,
            "name" : "Material.001",
            "pbrMetallicRoughness" : {
                "baseColorFactor" : [
                    0.6859572529792786,
                    0.6859572529792786,
                    0.6859572529792786,
                    1
                ],
                "metallicFactor" : 0,
                "roughnessFactor" : 0.4000000059604645
            }
        },
        {
            "doubleSided" : true,
            "name" : "Material.002",
            "pbrMetallicRoughness" : {
                "baseColorFactor" : [
                    0.6859572529792786,
                    0.6859572529792786,
                    0.6859572529792786,
                    1
                ],
                "metallicFactor" : 0,
                "roughnessFactor" : 0.4000000059604645
            }
        },
        {
            "doubleSided" : true,
            "name" : "Material.003",
            "pbrMetallicRoughness" : {
                "baseColorFactor" : [
                    0.6859572529792786,
                    0.6859572529792786,
                    0.6859572529792786,
                    1
                ],
                "metallicFactor" : 0,
                "roughnessFactor" : 0.4000000059604645
            }
        },
        {
            "doubleSided" : true,
            "name" : "Material.004",
            "pbrMetallicRoughness" : {
                "baseColorFactor" : [
                    0.6859572529792786,
                    0.6859572529792786,
                    0.6859572529792786,
                    1
                ],
                "metallicFactor" : 0,
                "roughnessFactor" : 0.4000000059604645
            }
        },
        {
            "doubleSided" : true,
            "name" : "Material.006",
            "pbrMetallicRoughness" : {
                "baseColorFactor" : [
                    0.6859572529792786,
                    0.6859572529792786,
                    0.6859572529792786,
                    1
                ],
                "metallicFactor" : 0,
                "roughnessFactor" : 0.4000000059604645
            }
        }
    ],
    "meshes" : [
        {
            "name" : "Text.003",
            "primitives" : [
                {
                    "attributes" : {
                        "POSITION" : 0,
                        "NORMAL" : 1,
                        "TEXCOORD_0" : 2
                    },
                    "indices" : 3,
                    "material" : 0
                }
            ]
        },
        {
            "name" : "message_board",
            "primitives" : [
                {
                    "attributes" : {
                        "POSITION" : 4,
                        "NORMAL" : 5,
                        "TEXCOORD_0" : 6
                    },
                    "indices" : 7,
                    "material" : 1
                }
            ]
        },
        {
            "name" : "Text.001",
            "primitives" : [
                {
                    "attributes" : {
                        "POSITION" : 8,
                        "NORMAL" : 9,
                        "TEXCOORD_0" : 10
                    },
                    "indices" : 11,
                    "material" : 2
                }
            ]
        },
        {
            "name" : "Text.002",
            "primitives" : [
                {
                    "attributes" : {
                        "POSITION" : 12,
                        "NORMAL" : 13,
                        "TEXCOORD_0" : 14
                    },
                    "indices" : 15,
                    "material" : 3
                }
            ]
        },
        {
            "name" : "Text.006",
            "primitives" : [
                {
                    "attributes" : {
                        "POSITION" : 16,
                        "NORMAL" : 17,
                        "TEXCOORD_0" : 18
                    },
                    "indices" : 19,
                    "material" : 4
                }
            ]
        },
        {
            "name" : "Text.007",
            "primitives" : [
                {
                    "attributes" : {
                        "POSITION" : 20,
                        "NORMAL" : 21,
                        "TEXCOORD_0" : 22
                    },
                    "indices" : 23,
                    "material" : 5
                }
            ]
        },
        {
            "name" : "Text.008",
            "primitives" : [
                {
                    "attributes" : {
                        "POSITION" : 24,
                        "NORMAL" : 25,
                        "TEXCOORD_0" : 26
                    },
                    "indices" : 27,
                    "material" : 6
                }
            ]
        }
    ],
    "accessors" : [
        {
            "bufferView" : 0,
            "componentType" : 5126,
            "count" : 589,
            "max" : [
                2.7184998989105225,
                0,
                0.40000003576278687
            ],
            "min" : [
                -2.7185001373291016,
                0,
                -0.39100003242492676
            ],
            "type" : "VEC3"
        },
        {
            "bufferView" : 1,
            "componentType" : 5126,
            "count" : 589,
            "type" : "VEC3"
        },
        {
            "bufferView" : 2,
            "componentType" : 5126,
            "count" : 589,
            "type" : "VEC2"
        },
        {
            "bufferView" : 3,
            "componentType" : 5123,
            "count" : 1251,
            "type" : "SCALAR"
        },
        {
            "bufferView" : 4,
            "componentType" : 5126,
            "count" : 1850,
            "max" : [
                89.48860168457031,
                5,
                119.28679656982422
            ],
            "min" : [
                -75.82949829101562,
                -14.861700057983398,
                -91.47019958496094
            ],
            "type" : "VEC3"
        },
        {
            "bufferView" : 5,
            "componentType" : 5126,
            "count" : 1850,
            "type" : "VEC3"
        },
        {
            "bufferView" : 6,
            "componentType" : 5126,
            "count" : 1850,
            "type" : "VEC2"
        },
        {
            "bufferView" : 7,
            "componentType" : 5123,
            "count" : 3012,
            "type" : "SCALAR"
        },
        {
            "bufferView" : 8,
            "componentType" : 5126,
            "count" : 2553,
            "max" : [
                4.853000164031982,
                0,
                0.5300000309944153
            ],
            "min" : [
                -5.104000091552734,
                0,
                -0.39140745997428894
            ],
            "type" : "VEC3"
        },
        {
            "bufferView" : 9,
            "componentType" : 5126,
            "count" : 2553,
            "type" : "VEC3"
        },
        {
            "bufferView" : 10,
            "componentType" : 5126,
            "count" : 2553,
            "type" : "VEC2"
        },
        {
            "bufferView" : 11,
            "componentType" : 5123,
            "count" : 5859,
            "type" : "SCALAR"
        },
        {
            "bufferView" : 12,
            "componentType" : 5126,
            "count" : 2685,
            "max" : [
                6.902500152587891,
                0,
                0.5300000309944153
            ],
            "min" : [
                -6.861499786376953,
                0,
                -0.39140745997428894
            ],
            "type" : "VEC3"
        },
        {
            "bufferView" : 13,
            "componentType" : 5126,
            "count" : 2685,
            "type" : "VEC3"
        },
        {
            "bufferView" : 14,
            "componentType" : 5126,
            "count" : 2685,
            "type" : "VEC2"
        },
        {
            "bufferView" : 15,
            "componentType" : 5123,
            "count" : 5973,
            "type" : "SCALAR"
        },
        {
            "bufferView" : 16,
            "componentType" : 5126,
            "count" : 2849,
            "max" : [
                5.918000221252441,
                0,
                0.5300000309944153
            ],
            "min" : [
                -5.979000091552734,
                0,
                -0.38200002908706665
            ],
            "type" : "VEC3"
        },
        {
            "bufferView" : 17,
            "componentType" : 5126,
            "count" : 2849,
            "type" : "VEC3"
        },
        {
            "bufferView" : 18,
            "componentType" : 5126,
            "count" : 2849,
            "type" : "VEC2"
        },
        {
            "bufferView" : 19,
            "componentType" : 5123,
            "count" : 6513,
            "type" : "SCALAR"
        },
        {
            "bufferView" : 20,
            "componentType" : 5126,
            "count" : 2722,
            "max" : [
                6.830499649047852,
                0,
                0.5300000309944153
            ],
            "min" : [
                -7.140499591827393,
                0,
                -0.38600003719329834
            ],
            "type" : "VEC3"
        },
        {
            "bufferView" : 21,
            "componentType" : 5126,
            "count" : 2722,
            "type" : "VEC3"
        },
        {
            "bufferView" : 22,
            "componentType" : 5126,
            "count" : 2722,
            "type" : "VEC2"
        },
        {
            "bufferView" : 23,
            "componentType" : 5123,
            "count" : 6282,
            "type" : "SCALAR"
        },
        {
            "bufferView" : 24,
            "componentType" : 5126,
            "count" : 3333,
            "max" : [
                8.034500122070312,
                0,
                0.5300000309944153
            ],
            "min" : [
                -8.095500946044922,
                0,
                -0.38200002908706665
            ],
            "type" : "VEC3"
        },
        {
            "bufferView" : 25,
            "componentType" : 5126,
            "count" : 3333,
            "type" : "VEC3"
        },
        {
            "bufferView" : 26,
            "componentType" : 5126,
            "count" : 3333,
            "type" : "VEC2"
        },
        {
            "bufferView" : 27,
            "componentType" : 5123,
            "count" : 7545,
            "type" : "SCALAR"
        }
    ],
    "bufferViews" : [
        {
            "buffer" : 0,
            "byteLength" : 7068,
            "byteOffset" : 0
        },
        {
            "buffer" : 0,
            "byteLength" : 7068,
            "byteOffset" : 7068
        },
        {
            "buffer" : 0,
            "byteLength" : 4712,
            "byteOffset" : 14136
        },
        {
            "buffer" : 0,
            "byteLength" : 2502,
            "byteOffset" : 18848
        },
        {
            "buffer" : 0,
            "byteLength" : 22200,
            "byteOffset" : 21352
        },
        {
            "buffer" : 0,
            "byteLength" : 22200,
            "byteOffset" : 43552
        },
        {
            "buffer" : 0,
            "byteLength" : 14800,
            "byteOffset" : 65752
        },
        {
            "buffer" : 0,
            "byteLength" : 6024,
            "byteOffset" : 80552
        },
        {
            "buffer" : 0,
            "byteLength" : 30636,
            "byteOffset" : 86576
        },
        {
            "buffer" : 0,
            "byteLength" : 30636,
            "byteOffset" : 117212
        },
        {
            "buffer" : 0,
            "byteLength" : 20424,
            "byteOffset" : 147848
        },
        {
            "buffer" : 0,
            "byteLength" : 11718,
            "byteOffset" : 168272
        },
        {
            "buffer" : 0,
            "byteLength" : 32220,
            "byteOffset" : 179992
        },
        {
            "buffer" : 0,
            "byteLength" : 32220,
            "byteOffset" : 212212
        },
        {
            "buffer" : 0,
            "byteLength" : 21480,
            "byteOffset" : 244432
        },
        {
            "buffer" : 0,
            "byteLength" : 11946,
            "byteOffset" : 265912
        },
        {
            "buffer" : 0,
            "byteLength" : 34188,
            "byteOffset" : 277860
        },
        {
            "buffer" : 0,
            "byteLength" : 34188,
            "byteOffset" : 312048
        },
        {
            "buffer" : 0,
            "byteLength" : 22792,
            "byteOffset" : 346236
        },
        {
            "buffer" : 0,
            "byteLength" : 13026,
            "byteOffset" : 369028
        },
        {
            "buffer" : 0,
            "byteLength" : 32664,
            "byteOffset" : 382056
        },
        {
            "buffer" : 0,
            "byteLength" : 32664,
            "byteOffset" : 414720
        },
        {
            "buffer" : 0,
            "byteLength" : 21776,
            "byteOffset" : 447384
        },
        {
            "buffer" : 0,
            "byteLength" : 12564,
            "byteOffset" : 469160
        },
        {
            "buffer" : 0,
            "byteLength" : 39996,
            "byteOffset" : 481724
        },
        {
            "buffer" : 0,
            "byteLength" : 39996,
            "byteOffset" : 521720
        },
        {
            "buffer" : 0,
            "byteLength" : 26664,
            "byteOffset" : 561716
        },
        {
            "buffer" : 0,
            "byteLength" : 15090,
            "byteOffset" : 588380
        }
    ],
    "buffers" : [
        {
            "byteLength" : 603472,
            "uri" : "data:application/octet-stream;base64,"
        }
    ]
}
