{
    "asset" : {
        "generator" : "Khronos glTF Blender I/O v1.5.17",
        "version" : "2.0"
    },
    "scene" : 0,
    "scenes" : [
        {
            "name" : "Scene",
            "nodes" : [
                0,
                1,
                2,
                8,
                9,
                10
            ]
        }
    ],
    "nodes" : [
        {
            "name" : "Camera",
            "rotation" : [
                0.483536034822464,
                0.33687159419059753,
                -0.20870360732078552,
                0.7804827094078064
            ],
            "translation" : [
                7.358891487121582,
                4.958309173583984,
                6.925790786743164
            ]
        },
        {
            "name" : "Light.001",
            "rotation" : [
                0.16907575726509094,
                0.7558804154396057,
                -0.27217137813568115,
                0.5709474086761475
            ],
            "translation" : [
                4.076245307922363,
                5.903861999511719,
                -1.0054539442062378
            ]
        },
        {
            "mesh" : 0,
            "name" : "Text",
            "rotation" : [
                0,
                0.7071067094802856,
                -0.7071068286895752,
                -1.1520229747929989e-07
            ],
            "scale" : [
                0.5729685425758362,
                0.5729685425758362,
                0.5729685425758362
            ],
            "translation" : [
                -0.016597509384155273,
                6.222766876220703,
                -0.8622888326644897
            ]
        },
        {
            "mesh" : 1,
            "name" : "Cube",
            "translation" : [
                0,
                -12.622200012207031,
                35.49129867553711
            ]
        },
        {
            "name" : "fd"
        },
        {
            "mesh" : 2,
            "name" : "email.003",
            "translation" : [
                0,
                0,
                19.856800079345703
            ]
        },
        {
            "mesh" : 3,
            "name" : "email",
            "translation" : [
                0,
                0,
                -20.593799591064453
            ]
        },
        {
            "children" : [
                5,
                6
            ],
            "name" : "Null_1",
            "translation" : [
                0,
                0,
                -1.8426200151443481
            ]
        },
        {
            "children" : [
                3,
                4,
                7
            ],
            "name" : "Untitled 6",
            "rotation" : [
                0,
                0.7071067094802856,
                -0.7071068286895752,
                -3.0908616110991716e-08
            ],
            "scale" : [
                0.046910159289836884,
                0.046910159289836884,
                0.046910159289836884
            ],
            "translation" : [
                0,
                6.199999809265137,
                -0.5699999928474426
            ]
        },
        {
            "mesh" : 4,
            "name" : "Linkedin-Logo-300x188",
            "rotation" : [
                0,
                0.7071067094802856,
                -0.7071068286895752,
                -1.882577862488688e-07
            ],
            "scale" : [
                0.8864181637763977,
                1.447340726852417,
                1.447340726852417
            ],
            "translation" : [
                0.05291748046875,
                7.942378044128418,
                -0.8722891807556152
            ]
        },
        {
            "mesh" : 5,
            "name" : "Text.001",
            "rotation" : [
                0,
                0.7071067094802856,
                -0.7071068286895752,
                -1.1520228326844517e-07
            ],
            "scale" : [
                0.5624725222587585,
                0.5624725222587585,
                0.5624725222587585
            ],
            "translation" : [
                0.09131073951721191,
                4.459522724151611,
                -0.8722881078720093
            ]
        }
    ],
    "materials" : [
        {
            "doubleSided" : true,
            "name" : "Material",
            "pbrMetallicRoughness" : {
                "baseColorFactor" : [
                    0.6859572529792786,
                    0.6859572529792786,
                    0.6859572529792786,
                    1
                ],
                "metallicFactor" : 0,
                "roughnessFactor" : 0.4000000059604645
            }
        },
        {
            "doubleSided" : true,
            "name" : "Material.005",
            "pbrMetallicRoughness" : {
                "baseColorFactor" : [
                    0.30946898460388184,
                    0.1946178674697876,
                    0.08650048077106476,
                    1
                ],
                "metallicFactor" : 0,
                "roughnessFactor" : 0.4000000059604645
            }
        },
        {
            "doubleSided" : true,
            "name" : "Material.004",
            "pbrMetallicRoughness" : {
                "baseColorFactor" : [
                    0.6859572529792786,
                    0.6859572529792786,
                    0.6859572529792786,
                    1
                ],
                "metallicFactor" : 0,
                "roughnessFactor" : 0.4000000059604645
            }
        },
        {
            "doubleSided" : true,
            "name" : "Material.006",
            "pbrMetallicRoughness" : {
                "baseColorFactor" : [
                    0.5596007704734802,
                    0.04555255174636841,
                    0.026795417070388794,
                    1
                ],
                "metallicFactor" : 0,
                "roughnessFactor" : 0.4000000059604645
            }
        },
        {
            "alphaMode" : "BLEND",
            "doubleSided" : true,
            "name" : "Linkedin-Logo-300x188",
            "pbrMetallicRoughness" : {
                "baseColorTexture" : {
                    "index" : 0
                },
                "metallicFactor" : 0,
                "roughnessFactor" : 0.5
            }
        },
        {
            "doubleSided" : true,
            "name" : "Material.007",
            "pbrMetallicRoughness" : {
                "baseColorFactor" : [
                    0.6859572529792786,
                    0.6859572529792786,
                    0.6859572529792786,
                    1
                ],
                "metallicFactor" : 0,
                "roughnessFactor" : 0.4000000059604645
            }
        }
    ],
    "meshes" : [
        {
            "name" : "Text.003",
            "primitives" : [
                {
                    "attributes" : {
                        "POSITION" : 0,
                        "NORMAL" : 1,
                        "TEXCOORD_0" : 2
                    },
                    "indices" : 3,
                    "material" : 0
                }
            ]
        },
        {
            "name" : "Cube-mesh",
            "primitives" : [
                {
                    "attributes" : {
                        "POSITION" : 4,
                        "NORMAL" : 5,
                        "TEXCOORD_0" : 6,
                        "TEXCOORD_1" : 7,
                        "TEXCOORD_2" : 8
                    },
                    "indices" : 9,
                    "material" : 1
                }
            ]
        },
        {
            "name" : "Null_1_2-mesh",
            "primitives" : [
                {
                    "attributes" : {
                        "POSITION" : 10,
                        "NORMAL" : 11,
                        "TEXCOORD_0" : 12
                    },
                    "indices" : 13,
                    "material" : 2
                }
            ]
        },
        {
            "name" : "Null_3-mesh",
            "primitives" : [
                {
                    "attributes" : {
                        "POSITION" : 14,
                        "NORMAL" : 15,
                        "TEXCOORD_0" : 16
                    },
                    "indices" : 17,
                    "material" : 3
                }
            ]
        },
        {
            "name" : "Linkedin-Logo-300x188",
            "primitives" : [
                {
                    "attributes" : {
                        "POSITION" : 18,
                        "NORMAL" : 19,
                        "TEXCOORD_0" : 20
                    },
                    "indices" : 21,
                    "material" : 4
                }
            ]
        },
        {
            "name" : "Text.004",
            "primitives" : [
                {
                    "attributes" : {
                        "POSITION" : 22,
                        "NORMAL" : 23,
                        "TEXCOORD_0" : 24
                    },
                    "indices" : 25,
                    "material" : 5
                }
            ]
        }
    ],
    "textures" : [
        {
            "sampler" : 0,
            "source" : 0
        }
    ],
    "images" : [
        {
            "bufferView" : 22,
            "mimeType" : "image/png",
            "name" : "Gmail.max-1100x1100"
        }
    ],
    "accessors" : [
        {
            "bufferView" : 0,
            "componentType" : 5126,
            "count" : 3489,
            "max" : [
                4.935999870300293,
                0,
                0.5300000309944153
            ],
            "min" : [
                -4.992000102996826,
                0,
                -0.42900002002716064
            ],
            "type" : "VEC3"
        },
        {
            "bufferView" : 1,
            "componentType" : 5126,
            "count" : 3489,
            "type" : "VEC3"
        },
        {
            "bufferView" : 2,
            "componentType" : 5126,
            "count" : 3489,
            "type" : "VEC2"
        },
        {
            "bufferView" : 3,
            "componentType" : 5123,
            "count" : 7851,
            "type" : "SCALAR"
        },
        {
            "bufferView" : 4,
            "componentType" : 5126,
            "count" : 1898,
            "max" : [
                57.57504653930664,
                9.423728942871094,
                96.91496276855469
            ],
            "min" : [
                -69.26514434814453,
                -6.543769359588623,
                -96.91496276855469
            ],
            "type" : "VEC3"
        },
        {
            "bufferView" : 5,
            "componentType" : 5126,
            "count" : 1898,
            "type" : "VEC3"
        },
        {
            "bufferView" : 6,
            "componentType" : 5126,
            "count" : 1898,
            "type" : "VEC2"
        },
        {
            "bufferView" : 7,
            "componentType" : 5126,
            "count" : 1898,
            "type" : "VEC2"
        },
        {
            "bufferView" : 8,
            "componentType" : 5126,
            "count" : 1898,
            "type" : "VEC2"
        },
        {
            "bufferView" : 9,
            "componentType" : 5123,
            "count" : 3072,
            "type" : "SCALAR"
        },
        {
            "bufferView" : 10,
            "componentType" : 5126,
            "count" : 63,
            "max" : [
                69.60144805908203,
                6.017648220062256,
                -39.1894416809082
            ],
            "min" : [
                -70.29669189453125,
                -6.017648220062256,
                -69.11141204833984
            ],
            "type" : "VEC3"
        },
        {
            "bufferView" : 11,
            "componentType" : 5126,
            "count" : 63,
            "type" : "VEC3"
        },
        {
            "bufferView" : 12,
            "componentType" : 5126,
            "count" : 63,
            "type" : "VEC2"
        },
        {
            "bufferView" : 13,
            "componentType" : 5123,
            "count" : 144,
            "type" : "SCALAR"
        },
        {
            "bufferView" : 14,
            "componentType" : 5126,
            "count" : 129,
            "max" : [
                66.19824981689453,
                6.017648220062256,
                69.91830444335938
            ],
            "min" : [
                -66.59637451171875,
                -6.017648696899414,
                -0.9577598571777344
            ],
            "type" : "VEC3"
        },
        {
            "bufferView" : 15,
            "componentType" : 5126,
            "count" : 129,
            "type" : "VEC3"
        },
        {
            "bufferView" : 16,
            "componentType" : 5126,
            "count" : 129,
            "type" : "VEC2"
        },
        {
            "bufferView" : 17,
            "componentType" : 5123,
            "count" : 288,
            "type" : "SCALAR"
        },
        {
            "bufferView" : 18,
            "componentType" : 5126,
            "count" : 4,
            "max" : [
                0.7978723645210266,
                0,
                0.5
            ],
            "min" : [
                -0.7978723645210266,
                0,
                -0.5
            ],
            "type" : "VEC3"
        },
        {
            "bufferView" : 19,
            "componentType" : 5126,
            "count" : 4,
            "type" : "VEC3"
        },
        {
            "bufferView" : 20,
            "componentType" : 5126,
            "count" : 4,
            "type" : "VEC2"
        },
        {
            "bufferView" : 21,
            "componentType" : 5123,
            "count" : 6,
            "type" : "SCALAR"
        },
        {
            "bufferView" : 23,
            "componentType" : 5126,
            "count" : 505,
            "max" : [
                2.246000051498413,
                0,
                0.30900001525878906
            ],
            "min" : [
                -2.2729997634887695,
                0,
                -0.39100003242492676
            ],
            "type" : "VEC3"
        },
        {
            "bufferView" : 24,
            "componentType" : 5126,
            "count" : 505,
            "type" : "VEC3"
        },
        {
            "bufferView" : 25,
            "componentType" : 5126,
            "count" : 505,
            "type" : "VEC2"
        },
        {
            "bufferView" : 26,
            "componentType" : 5123,
            "count" : 1044,
            "type" : "SCALAR"
        }
    ],
    "bufferViews" : [
        {
            "buffer" : 0,
            "byteLength" : 41868,
            "byteOffset" : 0
        },
        {
            "buffer" : 0,
            "byteLength" : 41868,
            "byteOffset" : 41868
        },
        {
            "buffer" : 0,
            "byteLength" : 27912,
            "byteOffset" : 83736
        },
        {
            "buffer" : 0,
            "byteLength" : 15702,
            "byteOffset" : 111648
        },
        {
            "buffer" : 0,
            "byteLength" : 22776,
            "byteOffset" : 127352
        },
        {
            "buffer" : 0,
            "byteLength" : 22776,
            "byteOffset" : 150128
        },
        {
            "buffer" : 0,
            "byteLength" : 15184,
            "byteOffset" : 172904
        },
        {
            "buffer" : 0,
            "byteLength" : 15184,
            "byteOffset" : 188088
        },
        {
            "buffer" : 0,
            "byteLength" : 15184,
            "byteOffset" : 203272
        },
        {
            "buffer" : 0,
            "byteLength" : 6144,
            "byteOffset" : 218456
        },
        {
            "buffer" : 0,
            "byteLength" : 756,
            "byteOffset" : 224600
        },
        {
            "buffer" : 0,
            "byteLength" : 756,
            "byteOffset" : 225356
        },
        {
            "buffer" : 0,
            "byteLength" : 504,
            "byteOffset" : 226112
        },
        {
            "buffer" : 0,
            "byteLength" : 288,
            "byteOffset" : 226616
        },
        {
            "buffer" : 0,
            "byteLength" : 1548,
            "byteOffset" : 226904
        },
        {
            "buffer" : 0,
            "byteLength" : 1548,
            "byteOffset" : 228452
        },
        {
            "buffer" : 0,
            "byteLength" : 1032,
            "byteOffset" : 230000
        },
        {
            "buffer" : 0,
            "byteLength" : 576,
            "byteOffset" : 231032
        },
        {
            "buffer" : 0,
            "byteLength" : 48,
            "byteOffset" : 231608
        },
        {
            "buffer" : 0,
            "byteLength" : 48,
            "byteOffset" : 231656
        },
        {
            "buffer" : 0,
            "byteLength" : 32,
            "byteOffset" : 231704
        },
        {
            "buffer" : 0,
            "byteLength" : 12,
            "byteOffset" : 231736
        },
        {
            "buffer" : 0,
            "byteLength" : 5335,
            "byteOffset" : 231748
        },
        {
            "buffer" : 0,
            "byteLength" : 6060,
            "byteOffset" : 237084
        },
        {
            "buffer" : 0,
            "byteLength" : 6060,
            "byteOffset" : 243144
        },
        {
            "buffer" : 0,
            "byteLength" : 4040,
            "byteOffset" : 249204
        },
        {
            "buffer" : 0,
            "byteLength" : 2088,
            "byteOffset" : 253244
        }
    ],
    "samplers" : [
        {
            "magFilter" : 9729,
            "minFilter" : 9987,
            "wrapS" : 33071,
            "wrapT" : 33071
        }
    ],
    "buffers" : [
        {
            "byteLength" : 255332,
            "uri" : "data:application/octet-stream;base64,"
        }
    ]
}
