{
    "asset" : {
        "generator" : "Khronos glTF Blender I/O v1.5.17",
        "version" : "2.0"
    },
    "scene" : 0,
    "scenes" : [
        {
            "name" : "Scene",
            "nodes" : [
                0,
                1,
                2,
                3,
                6,
                7,
                8
            ]
        }
    ],
    "nodes" : [
        {
            "name" : "Camera",
            "rotation" : [
                0.483536034822464,
                0.33687159419059753,
                -0.20870360732078552,
                0.7804827094078064
            ],
            "translation" : [
                7.358891487121582,
                4.958309173583984,
                6.925790786743164
            ]
        },
        {
            "name" : "Light.001",
            "rotation" : [
                0.16907575726509094,
                0.7558804154396057,
                -0.27217137813568115,
                0.5709474086761475
            ],
            "translation" : [
                4.076245307922363,
                5.903861999511719,
                -1.0054539442062378
            ]
        },
        {
            "mesh" : 0,
            "name" : "Text",
            "rotation" : [
                -0.001146813272498548,
                0.707105815410614,
                -0.7071058750152588,
                0.0011467515723779798
            ],
            "scale" : [
                0.18309731781482697,
                0.18309730291366577,
                0.18309731781482697
            ],
            "translation" : [
                -0.2073957473039627,
                2.0600013732910156,
                -0.1417597383260727
            ]
        },
        {
            "mesh" : 1,
            "name" : "Text.001",
            "rotation" : [
                0.009495936334133148,
                0.7127442955970764,
                -0.7012954354286194,
                0.009495928883552551
            ],
            "scale" : [
                0.16740982234477997,
                0.16740982234477997,
                0.16740979254245758
            ],
            "translation" : [
                -0.039299361407756805,
                0.9622892737388611,
                -0.17000000178813934
            ]
        },
        {
            "mesh" : 2,
            "name" : "Wood_01_04_low"
        },
        {
            "children" : [
                4
            ],
            "name" : "group5",
            "translation" : [
                -7.1988630294799805,
                -1.6700091361999512,
                0
            ]
        },
        {
            "children" : [
                5
            ],
            "name" : "Prod",
            "rotation" : [
                0.5,
                0.4999999701976776,
                -0.5000000596046448,
                0.4999999403953552
            ],
            "scale" : [
                1.01054048538208,
                1.01054048538208,
                1.01054048538208
            ],
            "translation" : [
                1.6799999475479126,
                0,
                0
            ]
        },
        {
            "mesh" : 3,
            "name" : "1200px-Seal_of_the_Hellenic_Air_Force.svg",
            "rotation" : [
                0.009509141556918621,
                0.7127427458763123,
                -0.701294481754303,
                0.009664373472332954
            ],
            "scale" : [
                0.36118343472480774,
                0.36118343472480774,
                0.36118343472480774
            ],
            "translation" : [
                0.7510379552841187,
                2.0499556064605713,
                -0.13927483558654785
            ]
        },
        {
            "mesh" : 4,
            "name" : "Text.002",
            "rotation" : [
                0.009495936334133148,
                0.7127442955970764,
                -0.7012954354286194,
                0.009495928883552551
            ],
            "scale" : [
                0.16740982234477997,
                0.16740982234477997,
                0.16740979254245758
            ],
            "translation" : [
                -0.039299361407756805,
                1.2122892141342163,
                -0.17000000178813934
            ]
        }
    ],
    "materials" : [
        {
            "doubleSided" : true,
            "name" : "Material",
            "pbrMetallicRoughness" : {
                "baseColorFactor" : [
                    0.6859572529792786,
                    0.6859572529792786,
                    0.6859572529792786,
                    1
                ],
                "metallicFactor" : 0,
                "roughnessFactor" : 0.4000000059604645
            }
        },
        {
            "doubleSided" : true,
            "name" : "Material.005",
            "pbrMetallicRoughness" : {
                "baseColorFactor" : [
                    0.30946898460388184,
                    0.1946178674697876,
                    0.08650048077106476,
                    1
                ],
                "metallicFactor" : 0,
                "roughnessFactor" : 0.4000000059604645
            }
        },
        {
            "alphaMode" : "BLEND",
            "doubleSided" : true,
            "name" : "1200px-Seal_of_the_Hellenic_Air_Force.svg",
            "pbrMetallicRoughness" : {
                "baseColorTexture" : {
                    "index" : 0
                },
                "metallicFactor" : 0,
                "roughnessFactor" : 0.5
            }
        },
        {
            "doubleSided" : true,
            "name" : "Material.002",
            "pbrMetallicRoughness" : {
                "baseColorFactor" : [
                    0.6859572529792786,
                    0.6859572529792786,
                    0.6859572529792786,
                    1
                ],
                "metallicFactor" : 0,
                "roughnessFactor" : 0.4000000059604645
            }
        }
    ],
    "meshes" : [
        {
            "name" : "Text.003",
            "primitives" : [
                {
                    "attributes" : {
                        "POSITION" : 0,
                        "NORMAL" : 1,
                        "TEXCOORD_0" : 2
                    },
                    "indices" : 3,
                    "material" : 0
                }
            ]
        },
        {
            "name" : "Text.004",
            "primitives" : [
                {
                    "attributes" : {
                        "POSITION" : 4,
                        "NORMAL" : 5,
                        "TEXCOORD_0" : 6
                    },
                    "indices" : 7,
                    "material" : 0
                }
            ]
        },
        {
            "name" : "Mesh.017",
            "primitives" : [
                {
                    "attributes" : {
                        "POSITION" : 8,
                        "NORMAL" : 9,
                        "TEXCOORD_0" : 10
                    },
                    "indices" : 11,
                    "material" : 1
                }
            ]
        },
        {
            "name" : "1200px-Seal_of_the_Hellenic_Air_Force.svg",
            "primitives" : [
                {
                    "attributes" : {
                        "POSITION" : 12,
                        "NORMAL" : 13,
                        "TEXCOORD_0" : 14
                    },
                    "indices" : 15,
                    "material" : 2
                }
            ]
        },
        {
            "name" : "Text.002",
            "primitives" : [
                {
                    "attributes" : {
                        "POSITION" : 16,
                        "NORMAL" : 17,
                        "TEXCOORD_0" : 18
                    },
                    "indices" : 19,
                    "material" : 3
                }
            ]
        }
    ],
    "textures" : [
        {
            "sampler" : 0,
            "source" : 0
        }
    ],
    "images" : [
        {
            "bufferView" : 16,
            "mimeType" : "image/png",
            "name" : "1200px-Seal_of_the_Hellenic_Air_Force.svg"
        }
    ],
    "accessors" : [
        {
            "bufferView" : 0,
            "componentType" : 5126,
            "count" : 1212,
            "max" : [
                3.6725001335144043,
                0,
                0.3500000238418579
            ],
            "min" : [
                -3.6735000610351562,
                0,
                -0.3450000286102295
            ],
            "type" : "VEC3"
        },
        {
            "bufferView" : 1,
            "componentType" : 5126,
            "count" : 1212,
            "type" : "VEC3"
        },
        {
            "bufferView" : 2,
            "componentType" : 5126,
            "count" : 1212,
            "type" : "VEC2"
        },
        {
            "bufferView" : 3,
            "componentType" : 5123,
            "count" : 2625,
            "type" : "SCALAR"
        },
        {
            "bufferView" : 4,
            "componentType" : 5126,
            "count" : 4034,
            "max" : [
                3.7862000465393066,
                0,
                -2.2855000495910645
            ],
            "min" : [
                -3.456200122833252,
                0,
                -3.8151001930236816
            ],
            "type" : "VEC3"
        },
        {
            "bufferView" : 5,
            "componentType" : 5126,
            "count" : 4034,
            "type" : "VEC3"
        },
        {
            "bufferView" : 6,
            "componentType" : 5126,
            "count" : 4034,
            "type" : "VEC2"
        },
        {
            "bufferView" : 7,
            "componentType" : 5123,
            "count" : 8913,
            "type" : "SCALAR"
        },
        {
            "bufferView" : 8,
            "componentType" : 5126,
            "count" : 1463,
            "max" : [
                7.342465877532959,
                1.3020167350769043,
                -1.8954275219584815e-05
            ],
            "min" : [
                7.061888694763184,
                -1.2794859409332275,
                -2.609147787094116
            ],
            "type" : "VEC3"
        },
        {
            "bufferView" : 9,
            "componentType" : 5126,
            "count" : 1463,
            "type" : "VEC3"
        },
        {
            "bufferView" : 10,
            "componentType" : 5126,
            "count" : 1463,
            "type" : "VEC2"
        },
        {
            "bufferView" : 11,
            "componentType" : 5123,
            "count" : 7038,
            "type" : "SCALAR"
        },
        {
            "bufferView" : 12,
            "componentType" : 5126,
            "count" : 4,
            "max" : [
                0.44247788190841675,
                0,
                0.5
            ],
            "min" : [
                -0.44247788190841675,
                0,
                -0.5
            ],
            "type" : "VEC3"
        },
        {
            "bufferView" : 13,
            "componentType" : 5126,
            "count" : 4,
            "type" : "VEC3"
        },
        {
            "bufferView" : 14,
            "componentType" : 5126,
            "count" : 4,
            "type" : "VEC2"
        },
        {
            "bufferView" : 15,
            "componentType" : 5123,
            "count" : 6,
            "type" : "SCALAR"
        },
        {
            "bufferView" : 17,
            "componentType" : 5126,
            "count" : 983,
            "max" : [
                2.4519999027252197,
                0,
                -3.0394999980926514
            ],
            "min" : [
                -2.181000232696533,
                0,
                -3.9514999389648438
            ],
            "type" : "VEC3"
        },
        {
            "bufferView" : 18,
            "componentType" : 5126,
            "count" : 983,
            "type" : "VEC3"
        },
        {
            "bufferView" : 19,
            "componentType" : 5126,
            "count" : 983,
            "type" : "VEC2"
        },
        {
            "bufferView" : 20,
            "componentType" : 5123,
            "count" : 2121,
            "type" : "SCALAR"
        }
    ],
    "bufferViews" : [
        {
            "buffer" : 0,
            "byteLength" : 14544,
            "byteOffset" : 0
        },
        {
            "buffer" : 0,
            "byteLength" : 14544,
            "byteOffset" : 14544
        },
        {
            "buffer" : 0,
            "byteLength" : 9696,
            "byteOffset" : 29088
        },
        {
            "buffer" : 0,
            "byteLength" : 5250,
            "byteOffset" : 38784
        },
        {
            "buffer" : 0,
            "byteLength" : 48408,
            "byteOffset" : 44036
        },
        {
            "buffer" : 0,
            "byteLength" : 48408,
            "byteOffset" : 92444
        },
        {
            "buffer" : 0,
            "byteLength" : 32272,
            "byteOffset" : 140852
        },
        {
            "buffer" : 0,
            "byteLength" : 17826,
            "byteOffset" : 173124
        },
        {
            "buffer" : 0,
            "byteLength" : 17556,
            "byteOffset" : 190952
        },
        {
            "buffer" : 0,
            "byteLength" : 17556,
            "byteOffset" : 208508
        },
        {
            "buffer" : 0,
            "byteLength" : 11704,
            "byteOffset" : 226064
        },
        {
            "buffer" : 0,
            "byteLength" : 14076,
            "byteOffset" : 237768
        },
        {
            "buffer" : 0,
            "byteLength" : 48,
            "byteOffset" : 251844
        },
        {
            "buffer" : 0,
            "byteLength" : 48,
            "byteOffset" : 251892
        },
        {
            "buffer" : 0,
            "byteLength" : 32,
            "byteOffset" : 251940
        },
        {
            "buffer" : 0,
            "byteLength" : 12,
            "byteOffset" : 251972
        },
        {
            "buffer" : 0,
            "byteLength" : 41424,
            "byteOffset" : 251984
        },
        {
            "buffer" : 0,
            "byteLength" : 11796,
            "byteOffset" : 293408
        },
        {
            "buffer" : 0,
            "byteLength" : 11796,
            "byteOffset" : 305204
        },
        {
            "buffer" : 0,
            "byteLength" : 7864,
            "byteOffset" : 317000
        },
        {
            "buffer" : 0,
            "byteLength" : 4242,
            "byteOffset" : 324864
        }
    ],
    "samplers" : [
        {
            "magFilter" : 9729,
            "minFilter" : 9987,
            "wrapS" : 33071,
            "wrapT" : 33071
        }
    ],
    "buffers" : [
        {
            "byteLength" : 329108,
            "uri" : "data:application/octet-stream;base64,"
        }
    ]
}
