{
    "asset" : {
        "generator" : "Khronos glTF Blender I/O v1.5.17",
        "version" : "2.0"
    },
    "scene" : 0,
    "scenes" : [
        {
            "name" : "Scene",
            "nodes" : [
                0,
                3
            ]
        }
    ],
    "nodes" : [
        {
            "name" : "Camera",
            "rotation" : [
                0.483536034822464,
                0.33687159419059753,
                -0.20870360732078552,
                0.7804827094078064
            ],
            "translation" : [
                7.358891487121582,
                4.958309173583984,
                6.925790786743164
            ]
        },
        {
            "mesh" : 0,
            "name" : "Text",
            "rotation" : [
                -0.0017466391436755657,
                0.7071046829223633,
                -0.7071045637130737,
                0.001746585126966238
            ],
            "scale" : [
                7.396737575531006,
                7.396737575531006,
                7.396737575531006
            ],
            "translation" : [
                0,
                76.45640563964844,
                -0.6318131685256958
            ]
        },
        {
            "mesh" : 1,
            "name" : "Text.003",
            "rotation" : [
                -0.0017466394929215312,
                0.7071046829223633,
                -0.7071045637130737,
                0.001746585126966238
            ],
            "scale" : [
                7.388078212738037,
                7.3880767822265625,
                7.388078212738037
            ],
            "translation" : [
                0,
                62.21796798706055,
                -0.6220764517784119
            ]
        },
        {
            "children" : [
                1,
                2
            ],
            "mesh" : 2,
            "name" : "MenuBoardPoly",
            "scale" : [
                0.030657261610031128,
                0.030657261610031128,
                0.030657261610031128
            ],
            "translation" : [
                0,
                0.9556785821914673,
                0
            ]
        }
    ],
    "materials" : [
        {
            "doubleSided" : true,
            "name" : "Material",
            "pbrMetallicRoughness" : {
                "baseColorFactor" : [
                    0.6859572529792786,
                    0.6859572529792786,
                    0.6859572529792786,
                    1
                ],
                "metallicFactor" : 0,
                "roughnessFactor" : 0.4000000059604645
            }
        },
        {
            "doubleSided" : true,
            "name" : "Material.001",
            "pbrMetallicRoughness" : {
                "baseColorFactor" : [
                    0.6859572529792786,
                    0.6859572529792786,
                    0.6859572529792786,
                    1
                ],
                "metallicFactor" : 0,
                "roughnessFactor" : 0.4000000059604645
            }
        },
        {
            "doubleSided" : true,
            "name" : "Material.005",
            "pbrMetallicRoughness" : {
                "baseColorFactor" : [
                    0.30946898460388184,
                    0.1946178674697876,
                    0.08650048077106476,
                    1
                ],
                "metallicFactor" : 0,
                "roughnessFactor" : 0.4000000059604645
            }
        }
    ],
    "meshes" : [
        {
            "name" : "Text.003",
            "primitives" : [
                {
                    "attributes" : {
                        "POSITION" : 0,
                        "NORMAL" : 1,
                        "TEXCOORD_0" : 2
                    },
                    "indices" : 3,
                    "material" : 0
                }
            ]
        },
        {
            "name" : "Text.001",
            "primitives" : [
                {
                    "attributes" : {
                        "POSITION" : 4,
                        "NORMAL" : 5,
                        "TEXCOORD_0" : 6
                    },
                    "indices" : 7,
                    "material" : 1
                }
            ]
        },
        {
            "name" : "Mesh.002",
            "primitives" : [
                {
                    "attributes" : {
                        "POSITION" : 8,
                        "NORMAL" : 9,
                        "TEXCOORD_0" : 10
                    },
                    "indices" : 11,
                    "material" : 2
                }
            ]
        }
    ],
    "accessors" : [
        {
            "bufferView" : 0,
            "componentType" : 5126,
            "count" : 939,
            "max" : [
                3.2690000534057617,
                0,
                0.40000003576278687
            ],
            "min" : [
                -3.2690000534057617,
                0,
                -0.39100003242492676
            ],
            "type" : "VEC3"
        },
        {
            "bufferView" : 1,
            "componentType" : 5126,
            "count" : 939,
            "type" : "VEC3"
        },
        {
            "bufferView" : 2,
            "componentType" : 5126,
            "count" : 939,
            "type" : "VEC2"
        },
        {
            "bufferView" : 3,
            "componentType" : 5123,
            "count" : 1983,
            "type" : "SCALAR"
        },
        {
            "bufferView" : 4,
            "componentType" : 5126,
            "count" : 2666,
            "max" : [
                1.942000150680542,
                0,
                7.5
            ],
            "min" : [
                -2.005000114440918,
                0,
                -0.6910000443458557
            ],
            "type" : "VEC3"
        },
        {
            "bufferView" : 5,
            "componentType" : 5126,
            "count" : 2666,
            "type" : "VEC3"
        },
        {
            "bufferView" : 6,
            "componentType" : 5126,
            "count" : 2666,
            "type" : "VEC2"
        },
        {
            "bufferView" : 7,
            "componentType" : 5123,
            "count" : 5886,
            "type" : "SCALAR"
        },
        {
            "bufferView" : 8,
            "componentType" : 5126,
            "count" : 86,
            "max" : [
                32.488006591796875,
                95.50726318359375,
                1.7995898723602295
            ],
            "min" : [
                -32.488006591796875,
                -31.620262145996094,
                -1.5478684902191162
            ],
            "type" : "VEC3"
        },
        {
            "bufferView" : 9,
            "componentType" : 5126,
            "count" : 86,
            "type" : "VEC3"
        },
        {
            "bufferView" : 10,
            "componentType" : 5126,
            "count" : 86,
            "type" : "VEC2"
        },
        {
            "bufferView" : 11,
            "componentType" : 5123,
            "count" : 144,
            "type" : "SCALAR"
        }
    ],
    "bufferViews" : [
        {
            "buffer" : 0,
            "byteLength" : 11268,
            "byteOffset" : 0
        },
        {
            "buffer" : 0,
            "byteLength" : 11268,
            "byteOffset" : 11268
        },
        {
            "buffer" : 0,
            "byteLength" : 7512,
            "byteOffset" : 22536
        },
        {
            "buffer" : 0,
            "byteLength" : 3966,
            "byteOffset" : 30048
        },
        {
            "buffer" : 0,
            "byteLength" : 31992,
            "byteOffset" : 34016
        },
        {
            "buffer" : 0,
            "byteLength" : 31992,
            "byteOffset" : 66008
        },
        {
            "buffer" : 0,
            "byteLength" : 21328,
            "byteOffset" : 98000
        },
        {
            "buffer" : 0,
            "byteLength" : 11772,
            "byteOffset" : 119328
        },
        {
            "buffer" : 0,
            "byteLength" : 1032,
            "byteOffset" : 131100
        },
        {
            "buffer" : 0,
            "byteLength" : 1032,
            "byteOffset" : 132132
        },
        {
            "buffer" : 0,
            "byteLength" : 688,
            "byteOffset" : 133164
        },
        {
            "buffer" : 0,
            "byteLength" : 288,
            "byteOffset" : 133852
        }
    ],
    "buffers" : [
        {
            "byteLength" : 134140,
            "uri" : "data:application/octet-stream;base64,"
        }
    ]
}
