{
    "asset" : {
        "generator" : "Khronos glTF Blender I/O v1.8.19",
        "version" : "2.0"
    },
    "extensionsUsed" : [
        "KHR_texture_transform"
    ],
    "extensionsRequired" : [
        "KHR_texture_transform"
    ],
    "scene" : 0,
    "scenes" : [
        {
            "name" : "Scene",
            "nodes" : [
                0,
                1,
                2,
                3
            ]
        }
    ],
    "nodes" : [
        {
            "mesh" : 0,
            "name" : "Cube.002_cell",
            "rotation" : [
                0,
                0,
                0.7071068286895752,
                -0.7071068286895752
            ],
            "translation" : [
                4,
                -4,
                0.030927566811442375
            ]
        },
        {
            "mesh" : 1,
            "name" : "Cube.002_cell.003",
            "rotation" : [
                0,
                0,
                0.7071068286895752,
                -0.7071068286895752
            ],
            "translation" : [
                -5,
                -3,
                -0.030437849462032318
            ]
        },
        {
            "mesh" : 2,
            "name" : "Cube.002_cell.006",
            "rotation" : [
                0,
                0,
                -0.7071068286895752,
                0.7071068286895752
            ],
            "translation" : [
                5,
                5,
                -0.030387232080101967
            ]
        },
        {
            "mesh" : 3,
            "name" : "Cube.002_cell.007",
            "rotation" : [
                0,
                0,
                -0.7071068286895752,
                0.7071068286895752
            ],
            "translation" : [
                -4,
                6,
                -0.025353929027915
            ]
        }
    ],
    "animations" : [
        {
            "channels" : [
                {
                    "sampler" : 0,
                    "target" : {
                        "node" : 0,
                        "path" : "translation"
                    }
                },
                {
                    "sampler" : 1,
                    "target" : {
                        "node" : 0,
                        "path" : "rotation"
                    }
                }
            ],
            "name" : "en0.0",
            "samplers" : [
                {
                    "input" : 16,
                    "interpolation" : "LINEAR",
                    "output" : 17
                },
                {
                    "input" : 16,
                    "interpolation" : "LINEAR",
                    "output" : 18
                }
            ]
        },
        {
            "channels" : [
                {
                    "sampler" : 0,
                    "target" : {
                        "node" : 0,
                        "path" : "translation"
                    }
                },
                {
                    "sampler" : 1,
                    "target" : {
                        "node" : 0,
                        "path" : "rotation"
                    }
                }
            ],
            "name" : "out0.0",
            "samplers" : [
                {
                    "input" : 16,
                    "interpolation" : "LINEAR",
                    "output" : 19
                },
                {
                    "input" : 16,
                    "interpolation" : "LINEAR",
                    "output" : 20
                }
            ]
        },
        {
            "channels" : [
                {
                    "sampler" : 0,
                    "target" : {
                        "node" : 1,
                        "path" : "translation"
                    }
                },
                {
                    "sampler" : 1,
                    "target" : {
                        "node" : 1,
                        "path" : "rotation"
                    }
                }
            ],
            "name" : "en1.0",
            "samplers" : [
                {
                    "input" : 16,
                    "interpolation" : "LINEAR",
                    "output" : 21
                },
                {
                    "input" : 16,
                    "interpolation" : "LINEAR",
                    "output" : 22
                }
            ]
        },
        {
            "channels" : [
                {
                    "sampler" : 0,
                    "target" : {
                        "node" : 1,
                        "path" : "translation"
                    }
                },
                {
                    "sampler" : 1,
                    "target" : {
                        "node" : 1,
                        "path" : "rotation"
                    }
                }
            ],
            "name" : "out1.0",
            "samplers" : [
                {
                    "input" : 16,
                    "interpolation" : "LINEAR",
                    "output" : 23
                },
                {
                    "input" : 16,
                    "interpolation" : "LINEAR",
                    "output" : 24
                }
            ]
        },
        {
            "channels" : [
                {
                    "sampler" : 0,
                    "target" : {
                        "node" : 2,
                        "path" : "rotation"
                    }
                },
                {
                    "sampler" : 1,
                    "target" : {
                        "node" : 2,
                        "path" : "translation"
                    }
                }
            ],
            "name" : "en0.1",
            "samplers" : [
                {
                    "input" : 16,
                    "interpolation" : "LINEAR",
                    "output" : 25
                },
                {
                    "input" : 16,
                    "interpolation" : "LINEAR",
                    "output" : 26
                }
            ]
        },
        {
            "channels" : [
                {
                    "sampler" : 0,
                    "target" : {
                        "node" : 2,
                        "path" : "rotation"
                    }
                },
                {
                    "sampler" : 1,
                    "target" : {
                        "node" : 2,
                        "path" : "translation"
                    }
                }
            ],
            "name" : "out0.1",
            "samplers" : [
                {
                    "input" : 16,
                    "interpolation" : "LINEAR",
                    "output" : 27
                },
                {
                    "input" : 16,
                    "interpolation" : "LINEAR",
                    "output" : 28
                }
            ]
        },
        {
            "channels" : [
                {
                    "sampler" : 0,
                    "target" : {
                        "node" : 3,
                        "path" : "translation"
                    }
                },
                {
                    "sampler" : 1,
                    "target" : {
                        "node" : 3,
                        "path" : "rotation"
                    }
                }
            ],
            "name" : "en1.1",
            "samplers" : [
                {
                    "input" : 16,
                    "interpolation" : "LINEAR",
                    "output" : 29
                },
                {
                    "input" : 16,
                    "interpolation" : "LINEAR",
                    "output" : 30
                }
            ]
        },
        {
            "channels" : [
                {
                    "sampler" : 0,
                    "target" : {
                        "node" : 3,
                        "path" : "translation"
                    }
                },
                {
                    "sampler" : 1,
                    "target" : {
                        "node" : 3,
                        "path" : "rotation"
                    }
                }
            ],
            "name" : "out1.1",
            "samplers" : [
                {
                    "input" : 16,
                    "interpolation" : "LINEAR",
                    "output" : 31
                },
                {
                    "input" : 16,
                    "interpolation" : "LINEAR",
                    "output" : 32
                }
            ]
        }
    ],
    "materials" : [
        {
            "alphaMode" : "BLEND",
            "doubleSided" : true,
            "name" : "Material.001",
            "pbrMetallicRoughness" : {
                "baseColorTexture" : {
                    "extensions" : {
                        "KHR_texture_transform" : {
                            "offset" : [
                                -4.768371542063221e-07,
                                2.499999817217691
                            ],
                            "rotation" : 1.5707963705062866,
                            "scale" : [
                                4,
                                4
                            ]
                        }
                    },
                    "index" : 0
                },
                "metallicFactor" : 0,
                "roughnessFactor" : 0.1770000010728836
            }
        }
    ],
    "meshes" : [
        {
            "name" : "Cube.002_cell.008",
            "primitives" : [
                {
                    "attributes" : {
                        "POSITION" : 0,
                        "NORMAL" : 1,
                        "TEXCOORD_0" : 2
                    },
                    "indices" : 3,
                    "material" : 0
                }
            ]
        },
        {
            "name" : "Cube.002_cell.002",
            "primitives" : [
                {
                    "attributes" : {
                        "POSITION" : 4,
                        "NORMAL" : 5,
                        "TEXCOORD_0" : 6
                    },
                    "indices" : 7,
                    "material" : 0
                }
            ]
        },
        {
            "name" : "Cube.002_cell.005",
            "primitives" : [
                {
                    "attributes" : {
                        "POSITION" : 8,
                        "NORMAL" : 9,
                        "TEXCOORD_0" : 10
                    },
                    "indices" : 11,
                    "material" : 0
                }
            ]
        },
        {
            "name" : "Cube.002_cell.006",
            "primitives" : [
                {
                    "attributes" : {
                        "POSITION" : 12,
                        "NORMAL" : 13,
                        "TEXCOORD_0" : 14
                    },
                    "indices" : 15,
                    "material" : 0
                }
            ]
        }
    ],
    "textures" : [
        {
            "sampler" : 0,
            "source" : 0
        }
    ],
    "images" : [
        {
            "bufferView" : 4,
            "mimeType" : "image/png",
            "name" : "whitepanel-8"
        }
    ],
    "accessors" : [
        {
            "bufferView" : 0,
            "componentType" : 5126,
            "count" : 11,
            "max" : [
                0.45301634073257446,
                0.4514184594154358,
                0.019072433933615685
            ],
            "min" : [
                -0.5459877848625183,
                -0.5478941798210144,
                -0.08092756569385529
            ],
            "type" : "VEC3"
        },
        {
            "bufferView" : 1,
            "componentType" : 5126,
            "count" : 11,
            "type" : "VEC3"
        },
        {
            "bufferView" : 2,
            "componentType" : 5126,
            "count" : 11,
            "type" : "VEC2"
        },
        {
            "bufferView" : 3,
            "componentType" : 5123,
            "count" : 21,
            "type" : "SCALAR"
        },
        {
            "bufferView" : 5,
            "componentType" : 5126,
            "count" : 11,
            "max" : [
                0.45229047536849976,
                0.5461938977241516,
                0.08043784648180008
            ],
            "min" : [
                -0.5468760132789612,
                -0.4528869390487671,
                -0.01956215128302574
            ],
            "type" : "VEC3"
        },
        {
            "bufferView" : 6,
            "componentType" : 5126,
            "count" : 11,
            "type" : "VEC3"
        },
        {
            "bufferView" : 7,
            "componentType" : 5126,
            "count" : 11,
            "type" : "VEC2"
        },
        {
            "bufferView" : 8,
            "componentType" : 5123,
            "count" : 21,
            "type" : "SCALAR"
        },
        {
            "bufferView" : 9,
            "componentType" : 5126,
            "count" : 11,
            "max" : [
                0.547447681427002,
                0.45182526111602783,
                0.08038723468780518
            ],
            "min" : [
                -0.4516303539276123,
                -0.5476294755935669,
                -0.019612768664956093
            ],
            "type" : "VEC3"
        },
        {
            "bufferView" : 10,
            "componentType" : 5126,
            "count" : 11,
            "type" : "VEC3"
        },
        {
            "bufferView" : 11,
            "componentType" : 5126,
            "count" : 11,
            "type" : "VEC2"
        },
        {
            "bufferView" : 12,
            "componentType" : 5123,
            "count" : 21,
            "type" : "SCALAR"
        },
        {
            "bufferView" : 13,
            "componentType" : 5126,
            "count" : 12,
            "max" : [
                0.5351568460464478,
                0.5351716876029968,
                0.07535392791032791
            ],
            "min" : [
                -0.4641035795211792,
                -0.46398043632507324,
                -0.02464607171714306
            ],
            "type" : "VEC3"
        },
        {
            "bufferView" : 14,
            "componentType" : 5126,
            "count" : 12,
            "type" : "VEC3"
        },
        {
            "bufferView" : 15,
            "componentType" : 5126,
            "count" : 12,
            "type" : "VEC2"
        },
        {
            "bufferView" : 16,
            "componentType" : 5123,
            "count" : 24,
            "type" : "SCALAR"
        },
        {
            "bufferView" : 17,
            "componentType" : 5126,
            "count" : 50,
            "max" : [
                2.0833333333333335
            ],
            "min" : [
                0.041666666666666664
            ],
            "type" : "SCALAR"
        },
        {
            "bufferView" : 18,
            "componentType" : 5126,
            "count" : 50,
            "type" : "VEC3"
        },
        {
            "bufferView" : 19,
            "componentType" : 5126,
            "count" : 50,
            "type" : "VEC4"
        },
        {
            "bufferView" : 20,
            "componentType" : 5126,
            "count" : 50,
            "type" : "VEC3"
        },
        {
            "bufferView" : 21,
            "componentType" : 5126,
            "count" : 50,
            "type" : "VEC4"
        },
        {
            "bufferView" : 22,
            "componentType" : 5126,
            "count" : 50,
            "type" : "VEC3"
        },
        {
            "bufferView" : 23,
            "componentType" : 5126,
            "count" : 50,
            "type" : "VEC4"
        },
        {
            "bufferView" : 24,
            "componentType" : 5126,
            "count" : 50,
            "type" : "VEC3"
        },
        {
            "bufferView" : 25,
            "componentType" : 5126,
            "count" : 50,
            "type" : "VEC4"
        },
        {
            "bufferView" : 26,
            "componentType" : 5126,
            "count" : 50,
            "type" : "VEC4"
        },
        {
            "bufferView" : 27,
            "componentType" : 5126,
            "count" : 50,
            "type" : "VEC3"
        },
        {
            "bufferView" : 28,
            "componentType" : 5126,
            "count" : 50,
            "type" : "VEC4"
        },
        {
            "bufferView" : 29,
            "componentType" : 5126,
            "count" : 50,
            "type" : "VEC3"
        },
        {
            "bufferView" : 30,
            "componentType" : 5126,
            "count" : 50,
            "type" : "VEC3"
        },
        {
            "bufferView" : 31,
            "componentType" : 5126,
            "count" : 50,
            "type" : "VEC4"
        },
        {
            "bufferView" : 32,
            "componentType" : 5126,
            "count" : 50,
            "type" : "VEC3"
        },
        {
            "bufferView" : 33,
            "componentType" : 5126,
            "count" : 50,
            "type" : "VEC4"
        }
    ],
    "bufferViews" : [
        {
            "buffer" : 0,
            "byteLength" : 132,
            "byteOffset" : 0
        },
        {
            "buffer" : 0,
            "byteLength" : 132,
            "byteOffset" : 132
        },
        {
            "buffer" : 0,
            "byteLength" : 88,
            "byteOffset" : 264
        },
        {
            "buffer" : 0,
            "byteLength" : 42,
            "byteOffset" : 352
        },
        {
            "buffer" : 0,
            "byteLength" : 211463,
            "byteOffset" : 396
        },
        {
            "buffer" : 0,
            "byteLength" : 132,
            "byteOffset" : 211860
        },
        {
            "buffer" : 0,
            "byteLength" : 132,
            "byteOffset" : 211992
        },
        {
            "buffer" : 0,
            "byteLength" : 88,
            "byteOffset" : 212124
        },
        {
            "buffer" : 0,
            "byteLength" : 42,
            "byteOffset" : 212212
        },
        {
            "buffer" : 0,
            "byteLength" : 132,
            "byteOffset" : 212256
        },
        {
            "buffer" : 0,
            "byteLength" : 132,
            "byteOffset" : 212388
        },
        {
            "buffer" : 0,
            "byteLength" : 88,
            "byteOffset" : 212520
        },
        {
            "buffer" : 0,
            "byteLength" : 42,
            "byteOffset" : 212608
        },
        {
            "buffer" : 0,
            "byteLength" : 144,
            "byteOffset" : 212652
        },
        {
            "buffer" : 0,
            "byteLength" : 144,
            "byteOffset" : 212796
        },
        {
            "buffer" : 0,
            "byteLength" : 96,
            "byteOffset" : 212940
        },
        {
            "buffer" : 0,
            "byteLength" : 48,
            "byteOffset" : 213036
        },
        {
            "buffer" : 0,
            "byteLength" : 200,
            "byteOffset" : 213084
        },
        {
            "buffer" : 0,
            "byteLength" : 600,
            "byteOffset" : 213284
        },
        {
            "buffer" : 0,
            "byteLength" : 800,
            "byteOffset" : 213884
        },
        {
            "buffer" : 0,
            "byteLength" : 600,
            "byteOffset" : 214684
        },
        {
            "buffer" : 0,
            "byteLength" : 800,
            "byteOffset" : 215284
        },
        {
            "buffer" : 0,
            "byteLength" : 600,
            "byteOffset" : 216084
        },
        {
            "buffer" : 0,
            "byteLength" : 800,
            "byteOffset" : 216684
        },
        {
            "buffer" : 0,
            "byteLength" : 600,
            "byteOffset" : 217484
        },
        {
            "buffer" : 0,
            "byteLength" : 800,
            "byteOffset" : 218084
        },
        {
            "buffer" : 0,
            "byteLength" : 800,
            "byteOffset" : 218884
        },
        {
            "buffer" : 0,
            "byteLength" : 600,
            "byteOffset" : 219684
        },
        {
            "buffer" : 0,
            "byteLength" : 800,
            "byteOffset" : 220284
        },
        {
            "buffer" : 0,
            "byteLength" : 600,
            "byteOffset" : 221084
        },
        {
            "buffer" : 0,
            "byteLength" : 600,
            "byteOffset" : 221684
        },
        {
            "buffer" : 0,
            "byteLength" : 800,
            "byteOffset" : 222284
        },
        {
            "buffer" : 0,
            "byteLength" : 600,
            "byteOffset" : 223084
        },
        {
            "buffer" : 0,
            "byteLength" : 800,
            "byteOffset" : 223684
        }
    ],
    "samplers" : [
        {
            "magFilter" : 9729,
            "minFilter" : 9987,
            "wrapS" : 33071,
            "wrapT" : 33071
        }
    ],
    "buffers" : [
        {
            "byteLength" : 224484,
            "uri" : "data:application/octet-stream;base64,"
        }
    ]
}
