{
    "asset" : {
        "generator" : "Khronos glTF Blender I/O v1.5.17",
        "version" : "2.0"
    },
    "scene" : 0,
    "scenes" : [
        {
            "name" : "Scene",
            "nodes" : [
                0,
                1,
                5
            ]
        }
    ],
    "nodes" : [
        {
            "name" : "Camera",
            "rotation" : [
                0.483536034822464,
                0.33687159419059753,
                -0.20870360732078552,
                0.7804827094078064
            ],
            "translation" : [
                7.358891487121582,
                4.958309173583984,
                6.925790786743164
            ]
        },
        {
            "name" : "Light.001",
            "rotation" : [
                0.16907575726509094,
                0.7558804154396057,
                -0.27217137813568115,
                0.5709474086761475
            ],
            "translation" : [
                4.076245307922363,
                5.903861999511719,
                -1.0054539442062378
            ]
        },
        {
            "mesh" : 0,
            "name" : "Text",
            "rotation" : [
                -0.5003702640533447,
                0.4996294677257538,
                -0.4996293783187866,
                0.5003703832626343
            ],
            "scale" : [
                1.8309731483459473,
                1.8309730291366577,
                1.8309732675552368
            ],
            "translation" : [
                -7.001506805419922,
                -0.052217647433280945,
                -0.037885308265686035
            ]
        },
        {
            "mesh" : 1,
            "name" : "Text.001",
            "rotation" : [
                -0.5000000596046448,
                0.4999999403953552,
                -0.5000001192092896,
                0.49999988079071045
            ],
            "scale" : [
                1.531041145324707,
                1.531041145324707,
                1.5310412645339966
            ],
            "translation" : [
                3.8183460235595703,
                0.22500649094581604,
                -0.010695099830627441
            ]
        },
        {
            "mesh" : 2,
            "name" : "Text.002",
            "rotation" : [
                0.5003552436828613,
                0.49962934851646423,
                0.49962928891181946,
                0.5003857016563416
            ],
            "scale" : [
                1.8309731483459473,
                1.8309730291366577,
                1.8690516948699951
            ],
            "translation" : [
                3.20965576171875,
                0.1615964025259018,
                0.495447039604187
            ]
        },
        {
            "children" : [
                2,
                3,
                4
            ],
            "mesh" : 3,
            "name" : "NEws",
            "rotation" : [
                0,
                0,
                -0.7071067690849304,
                0.7071068286895752
            ],
            "scale" : [
                0.09796269237995148,
                0.10000000149011612,
                0.10000000149011612
            ],
            "translation" : [
                0,
                2.424999952316284,
                -0.16893045604228973
            ]
        }
    ],
    "materials" : [
        {
            "doubleSided" : true,
            "name" : "Material",
            "pbrMetallicRoughness" : {
                "baseColorFactor" : [
                    0.6859572529792786,
                    0.6859572529792786,
                    0.6859572529792786,
                    1
                ],
                "metallicFactor" : 0,
                "roughnessFactor" : 0.4000000059604645
            }
        },
        {
            "doubleSided" : true,
            "name" : "Material.001",
            "pbrMetallicRoughness" : {
                "baseColorFactor" : [
                    0.6859572529792786,
                    0.6859572529792786,
                    0.6859572529792786,
                    1
                ],
                "metallicFactor" : 0,
                "roughnessFactor" : 0.4000000059604645
            }
        },
        {
            "doubleSided" : true,
            "name" : "Material.005",
            "pbrMetallicRoughness" : {
                "baseColorFactor" : [
                    0.1844695508480072,
                    0.119090735912323,
                    0.05411061644554138,
                    1
                ],
                "metallicFactor" : 0,
                "roughnessFactor" : 0.4000000059604645
            }
        }
    ],
    "meshes" : [
        {
            "name" : "Text.003",
            "primitives" : [
                {
                    "attributes" : {
                        "POSITION" : 0,
                        "NORMAL" : 1,
                        "TEXCOORD_0" : 2
                    },
                    "indices" : 3,
                    "material" : 0
                }
            ]
        },
        {
            "name" : "Text.004",
            "primitives" : [
                {
                    "attributes" : {
                        "POSITION" : 4,
                        "NORMAL" : 5,
                        "TEXCOORD_0" : 6
                    },
                    "indices" : 7,
                    "material" : 0
                }
            ]
        },
        {
            "name" : "Text.001",
            "primitives" : [
                {
                    "attributes" : {
                        "POSITION" : 8,
                        "NORMAL" : 9,
                        "TEXCOORD_0" : 10
                    },
                    "indices" : 11,
                    "material" : 1
                }
            ]
        },
        {
            "name" : "Mesh",
            "primitives" : [
                {
                    "attributes" : {
                        "POSITION" : 12,
                        "NORMAL" : 13,
                        "TEXCOORD_0" : 14
                    },
                    "indices" : 15,
                    "material" : 2
                }
            ]
        }
    ],
    "accessors" : [
        {
            "bufferView" : 0,
            "componentType" : 5126,
            "count" : 1419,
            "max" : [
                6.767500877380371,
                0,
                0.3500000238418579
            ],
            "min" : [
                -6.767500877380371,
                0,
                -0.3500000238418579
            ],
            "type" : "VEC3"
        },
        {
            "bufferView" : 1,
            "componentType" : 5126,
            "count" : 1419,
            "type" : "VEC3"
        },
        {
            "bufferView" : 2,
            "componentType" : 5126,
            "count" : 1419,
            "type" : "VEC2"
        },
        {
            "bufferView" : 3,
            "componentType" : 5123,
            "count" : 3201,
            "type" : "SCALAR"
        },
        {
            "bufferView" : 4,
            "componentType" : 5126,
            "count" : 19678,
            "max" : [
                8.275500297546387,
                0,
                3.9605000019073486
            ],
            "min" : [
                -8.004499435424805,
                0,
                -3.9605000019073486
            ],
            "type" : "VEC3"
        },
        {
            "bufferView" : 5,
            "componentType" : 5126,
            "count" : 19678,
            "type" : "VEC3"
        },
        {
            "bufferView" : 6,
            "componentType" : 5126,
            "count" : 19678,
            "type" : "VEC2"
        },
        {
            "bufferView" : 7,
            "componentType" : 5123,
            "count" : 43860,
            "type" : "SCALAR"
        },
        {
            "bufferView" : 8,
            "componentType" : 5126,
            "count" : 2040,
            "max" : [
                4.153000831604004,
                0,
                0.5710000395774841
            ],
            "min" : [
                -4.197000026702881,
                0,
                -0.3500000238418579
            ],
            "type" : "VEC3"
        },
        {
            "bufferView" : 9,
            "componentType" : 5126,
            "count" : 2040,
            "type" : "VEC3"
        },
        {
            "bufferView" : 10,
            "componentType" : 5126,
            "count" : 2040,
            "type" : "VEC2"
        },
        {
            "bufferView" : 11,
            "componentType" : 5123,
            "count" : 4446,
            "type" : "SCALAR"
        },
        {
            "bufferView" : 12,
            "componentType" : 5126,
            "count" : 1118,
            "max" : [
                24.705265045166016,
                16.48768424987793,
                0.5802903771400452
            ],
            "min" : [
                -11.02262020111084,
                -16.487686157226562,
                -2.9317047595977783
            ],
            "type" : "VEC3"
        },
        {
            "bufferView" : 13,
            "componentType" : 5126,
            "count" : 1118,
            "type" : "VEC3"
        },
        {
            "bufferView" : 14,
            "componentType" : 5126,
            "count" : 1118,
            "type" : "VEC2"
        },
        {
            "bufferView" : 15,
            "componentType" : 5123,
            "count" : 2352,
            "type" : "SCALAR"
        }
    ],
    "bufferViews" : [
        {
            "buffer" : 0,
            "byteLength" : 17028,
            "byteOffset" : 0
        },
        {
            "buffer" : 0,
            "byteLength" : 17028,
            "byteOffset" : 17028
        },
        {
            "buffer" : 0,
            "byteLength" : 11352,
            "byteOffset" : 34056
        },
        {
            "buffer" : 0,
            "byteLength" : 6402,
            "byteOffset" : 45408
        },
        {
            "buffer" : 0,
            "byteLength" : 236136,
            "byteOffset" : 51812
        },
        {
            "buffer" : 0,
            "byteLength" : 236136,
            "byteOffset" : 287948
        },
        {
            "buffer" : 0,
            "byteLength" : 157424,
            "byteOffset" : 524084
        },
        {
            "buffer" : 0,
            "byteLength" : 87720,
            "byteOffset" : 681508
        },
        {
            "buffer" : 0,
            "byteLength" : 24480,
            "byteOffset" : 769228
        },
        {
            "buffer" : 0,
            "byteLength" : 24480,
            "byteOffset" : 793708
        },
        {
            "buffer" : 0,
            "byteLength" : 16320,
            "byteOffset" : 818188
        },
        {
            "buffer" : 0,
            "byteLength" : 8892,
            "byteOffset" : 834508
        },
        {
            "buffer" : 0,
            "byteLength" : 13416,
            "byteOffset" : 843400
        },
        {
            "buffer" : 0,
            "byteLength" : 13416,
            "byteOffset" : 856816
        },
        {
            "buffer" : 0,
            "byteLength" : 8944,
            "byteOffset" : 870232
        },
        {
            "buffer" : 0,
            "byteLength" : 4704,
            "byteOffset" : 879176
        }
    ],
    "buffers" : [
        {
            "byteLength" : 883880,
            "uri" : "data:application/octet-stream;base64,"
        }
    ]
}
