{
    "asset" : {
        "generator" : "Khronos glTF Blender I/O v1.5.17",
        "version" : "2.0"
    },
    "scene" : 0,
    "scenes" : [
        {
            "name" : "Scene",
            "nodes" : [
                0,
                1,
                2,
                3,
                4,
                7,
                8
            ]
        }
    ],
    "nodes" : [
        {
            "name" : "Camera",
            "rotation" : [
                0.483536034822464,
                0.33687159419059753,
                -0.20870360732078552,
                0.7804827094078064
            ],
            "translation" : [
                7.358891487121582,
                4.958309173583984,
                6.925790786743164
            ]
        },
        {
            "name" : "Light.001",
            "rotation" : [
                0.16907575726509094,
                0.7558804154396057,
                -0.27217137813568115,
                0.5709474086761475
            ],
            "translation" : [
                4.076245307922363,
                5.903861999511719,
                -1.0054539442062378
            ]
        },
        {
            "mesh" : 0,
            "name" : "Text",
            "rotation" : [
                -0.0011468133889138699,
                0.707105815410614,
                -0.7071058750152588,
                0.0011467516887933016
            ],
            "scale" : [
                0.07508731633424759,
                0.07508731633424759,
                0.07508731633424759
            ],
            "translation" : [
                -0.027395758777856827,
                2.2799999713897705,
                -0.11999999731779099
            ]
        },
        {
            "mesh" : 1,
            "name" : "Text.001",
            "rotation" : [
                -7.684816955588758e-05,
                -0.7071068286895752,
                0.7071068286895752,
                7.690998609177768e-05
            ],
            "scale" : [
                0.11990083754062653,
                0.11990086734294891,
                0.11990083754062653
            ],
            "translation" : [
                0,
                1.0022892951965332,
                -0.125
            ]
        },
        {
            "mesh" : 2,
            "name" : "Text.002",
            "rotation" : [
                -7.684815500397235e-05,
                -0.7071068286895752,
                0.7071068286895752,
                7.690998609177768e-05
            ],
            "scale" : [
                0.14386139810085297,
                0.14386139810085297,
                0.14386141300201416
            ],
            "translation" : [
                -0.01929936185479164,
                1.1122890710830688,
                -0.125
            ]
        },
        {
            "mesh" : 3,
            "name" : "Wood_01_06_low",
            "translation" : [
                0,
                0,
                -0.12356603145599365
            ]
        },
        {
            "children" : [
                5
            ],
            "name" : "group3",
            "translation" : [
                -2.935422658920288,
                -2.0575168132781982,
                -2.764688491821289
            ]
        },
        {
            "children" : [
                6
            ],
            "name" : "Prod.001",
            "rotation" : [
                0.5,
                0.4999999701976776,
                -0.5000000596046448,
                0.4999999403953552
            ],
            "scale" : [
                1.0110000371932983,
                1.0110000371932983,
                1.0110000371932983
            ],
            "translation" : [
                2.0799999237060547,
                -2.9099998474121094,
                0
            ]
        },
        {
            "mesh" : 4,
            "name" : "\u039b\u03bf\u03b3\u03bf\u0301\u03c4\u03c5\u03c0\u03bf \u0395\u03c1\u03b3\u03b1\u03c3\u03c4\u03b7\u03c1\u03b9\u0301\u03bf\u03c5 \u0399\u03a6\u03a8\u039a-01 MEDIUM",
            "rotation" : [
                -0.007798428647220135,
                0.7065940499305725,
                -0.7075223326683044,
                -0.008726795203983784
            ],
            "scale" : [
                0.4281132221221924,
                0.4281132221221924,
                0.4281132221221924
            ],
            "translation" : [
                -0.02824004739522934,
                1.9201282262802124,
                -0.12600000202655792
            ]
        }
    ],
    "materials" : [
        {
            "doubleSided" : true,
            "name" : "Material",
            "pbrMetallicRoughness" : {
                "baseColorFactor" : [
                    0.6859572529792786,
                    0.6859572529792786,
                    0.6859572529792786,
                    1
                ],
                "metallicFactor" : 0,
                "roughnessFactor" : 0.4000000059604645
            }
        },
        {
            "doubleSided" : true,
            "name" : "Material.002",
            "pbrMetallicRoughness" : {
                "baseColorFactor" : [
                    0.6859572529792786,
                    0.6859572529792786,
                    0.6859572529792786,
                    1
                ],
                "metallicFactor" : 0,
                "roughnessFactor" : 0.4000000059604645
            }
        },
        {
            "doubleSided" : true,
            "name" : "Material.005",
            "pbrMetallicRoughness" : {
                "baseColorFactor" : [
                    0.30946898460388184,
                    0.1946178674697876,
                    0.08650048077106476,
                    1
                ],
                "metallicFactor" : 0,
                "roughnessFactor" : 0.4000000059604645
            }
        },
        {
            "alphaMode" : "BLEND",
            "doubleSided" : true,
            "name" : "\u039b\u03bf\u03b3\u03bf\u0301\u03c4\u03c5\u03c0\u03bf \u0395\u03c1\u03b3\u03b1\u03c3\u03c4\u03b7\u03c1\u03b9\u0301\u03bf\u03c5 \u0399\u03a6\u03a8\u039a-01 MEDIUM",
            "pbrMetallicRoughness" : {
                "baseColorTexture" : {
                    "index" : 0
                },
                "metallicFactor" : 0,
                "roughnessFactor" : 0.5
            }
        }
    ],
    "meshes" : [
        {
            "name" : "Text.003",
            "primitives" : [
                {
                    "attributes" : {
                        "POSITION" : 0,
                        "NORMAL" : 1,
                        "TEXCOORD_0" : 2
                    },
                    "indices" : 3,
                    "material" : 0
                }
            ]
        },
        {
            "name" : "Text.004",
            "primitives" : [
                {
                    "attributes" : {
                        "POSITION" : 4,
                        "NORMAL" : 5,
                        "TEXCOORD_0" : 6
                    },
                    "indices" : 7,
                    "material" : 0
                }
            ]
        },
        {
            "name" : "Text.002",
            "primitives" : [
                {
                    "attributes" : {
                        "POSITION" : 8,
                        "NORMAL" : 9,
                        "TEXCOORD_0" : 10
                    },
                    "indices" : 11,
                    "material" : 1
                }
            ]
        },
        {
            "name" : "Mesh.036",
            "primitives" : [
                {
                    "attributes" : {
                        "POSITION" : 12,
                        "NORMAL" : 13,
                        "TEXCOORD_0" : 14
                    },
                    "indices" : 15,
                    "material" : 2
                }
            ]
        },
        {
            "name" : "\u039b\u03bf\u03b3\u03bf\u0301\u03c4\u03c5\u03c0\u03bf \u0395\u03c1\u03b3\u03b1\u03c3\u03c4\u03b7\u03c1\u03b9\u0301\u03bf\u03c5 \u0399\u03a6\u03a8\u039a-01 MEDIUM",
            "primitives" : [
                {
                    "attributes" : {
                        "POSITION" : 16,
                        "NORMAL" : 17,
                        "TEXCOORD_0" : 18
                    },
                    "indices" : 19,
                    "material" : 3
                }
            ]
        }
    ],
    "textures" : [
        {
            "sampler" : 0,
            "source" : 0
        }
    ],
    "images" : [
        {
            "bufferView" : 20,
            "mimeType" : "image/png",
            "name" : "\u039b\u03bf\u03b3\u03bf\u0301\u03c4\u03c5\u03c0\u03bf \u0395\u03c1\u03b3\u03b1\u03c3\u03c4\u03b7\u03c1\u03b9\u0301\u03bf\u03c5 \u0399\u03a6\u03a8\u039a-01 MEDIUM"
        }
    ],
    "accessors" : [
        {
            "bufferView" : 0,
            "componentType" : 5126,
            "count" : 3931,
            "max" : [
                5.03100061416626,
                0,
                1.0709999799728394
            ],
            "min" : [
                -5.079000473022461,
                0,
                -0.8450000286102295
            ],
            "type" : "VEC3"
        },
        {
            "bufferView" : 1,
            "componentType" : 5126,
            "count" : 3931,
            "type" : "VEC3"
        },
        {
            "bufferView" : 2,
            "componentType" : 5126,
            "count" : 3931,
            "type" : "VEC2"
        },
        {
            "bufferView" : 3,
            "componentType" : 5123,
            "count" : 8694,
            "type" : "SCALAR"
        },
        {
            "bufferView" : 4,
            "componentType" : 5126,
            "count" : 5348,
            "max" : [
                4.28980016708374,
                0,
                -1.4854999780654907
            ],
            "min" : [
                -3.9590003490448,
                0,
                -3.8151001930236816
            ],
            "type" : "VEC3"
        },
        {
            "bufferView" : 5,
            "componentType" : 5126,
            "count" : 5348,
            "type" : "VEC3"
        },
        {
            "bufferView" : 6,
            "componentType" : 5126,
            "count" : 5348,
            "type" : "VEC2"
        },
        {
            "bufferView" : 7,
            "componentType" : 5123,
            "count" : 11937,
            "type" : "SCALAR"
        },
        {
            "bufferView" : 8,
            "componentType" : 5126,
            "count" : 2212,
            "max" : [
                4.223000526428223,
                0,
                -3.1695001125335693
            ],
            "min" : [
                -3.953000545501709,
                0,
                -3.9555001258850098
            ],
            "type" : "VEC3"
        },
        {
            "bufferView" : 9,
            "componentType" : 5126,
            "count" : 2212,
            "type" : "VEC3"
        },
        {
            "bufferView" : 10,
            "componentType" : 5126,
            "count" : 2212,
            "type" : "VEC2"
        },
        {
            "bufferView" : 11,
            "componentType" : 5123,
            "count" : 4914,
            "type" : "SCALAR"
        },
        {
            "bufferView" : 12,
            "componentType" : 5126,
            "count" : 1167,
            "max" : [
                3.0589959621429443,
                0.7169363498687744,
                -1.8954253391711973e-05
            ],
            "min" : [
                2.7845048904418945,
                -0.7640975713729858,
                -2.6091480255126953
            ],
            "type" : "VEC3"
        },
        {
            "bufferView" : 13,
            "componentType" : 5126,
            "count" : 1167,
            "type" : "VEC3"
        },
        {
            "bufferView" : 14,
            "componentType" : 5126,
            "count" : 1167,
            "type" : "VEC2"
        },
        {
            "bufferView" : 15,
            "componentType" : 5123,
            "count" : 5310,
            "type" : "SCALAR"
        },
        {
            "bufferView" : 16,
            "componentType" : 5126,
            "count" : 4,
            "max" : [
                1.158371090888977,
                0,
                0.5
            ],
            "min" : [
                -1.158371090888977,
                0,
                -0.5
            ],
            "type" : "VEC3"
        },
        {
            "bufferView" : 17,
            "componentType" : 5126,
            "count" : 4,
            "type" : "VEC3"
        },
        {
            "bufferView" : 18,
            "componentType" : 5126,
            "count" : 4,
            "type" : "VEC2"
        },
        {
            "bufferView" : 19,
            "componentType" : 5123,
            "count" : 6,
            "type" : "SCALAR"
        }
    ],
    "bufferViews" : [
        {
            "buffer" : 0,
            "byteLength" : 47172,
            "byteOffset" : 0
        },
        {
            "buffer" : 0,
            "byteLength" : 47172,
            "byteOffset" : 47172
        },
        {
            "buffer" : 0,
            "byteLength" : 31448,
            "byteOffset" : 94344
        },
        {
            "buffer" : 0,
            "byteLength" : 17388,
            "byteOffset" : 125792
        },
        {
            "buffer" : 0,
            "byteLength" : 64176,
            "byteOffset" : 143180
        },
        {
            "buffer" : 0,
            "byteLength" : 64176,
            "byteOffset" : 207356
        },
        {
            "buffer" : 0,
            "byteLength" : 42784,
            "byteOffset" : 271532
        },
        {
            "buffer" : 0,
            "byteLength" : 23874,
            "byteOffset" : 314316
        },
        {
            "buffer" : 0,
            "byteLength" : 26544,
            "byteOffset" : 338192
        },
        {
            "buffer" : 0,
            "byteLength" : 26544,
            "byteOffset" : 364736
        },
        {
            "buffer" : 0,
            "byteLength" : 17696,
            "byteOffset" : 391280
        },
        {
            "buffer" : 0,
            "byteLength" : 9828,
            "byteOffset" : 408976
        },
        {
            "buffer" : 0,
            "byteLength" : 14004,
            "byteOffset" : 418804
        },
        {
            "buffer" : 0,
            "byteLength" : 14004,
            "byteOffset" : 432808
        },
        {
            "buffer" : 0,
            "byteLength" : 9336,
            "byteOffset" : 446812
        },
        {
            "buffer" : 0,
            "byteLength" : 10620,
            "byteOffset" : 456148
        },
        {
            "buffer" : 0,
            "byteLength" : 48,
            "byteOffset" : 466768
        },
        {
            "buffer" : 0,
            "byteLength" : 48,
            "byteOffset" : 466816
        },
        {
            "buffer" : 0,
            "byteLength" : 32,
            "byteOffset" : 466864
        },
        {
            "buffer" : 0,
            "byteLength" : 12,
            "byteOffset" : 466896
        },
        {
            "buffer" : 0,
            "byteLength" : 148397,
            "byteOffset" : 466908
        }
    ],
    "samplers" : [
        {
            "magFilter" : 9729,
            "minFilter" : 9987,
            "wrapS" : 33071,
            "wrapT" : 33071
        }
    ],
    "buffers" : [
        {
            "byteLength" : 615308,
            "uri" : "data:application/octet-stream;base64,"
        }
    ]
}
