{
    "asset" : {
        "generator" : "Khronos glTF Blender I/O v1.5.17",
        "version" : "2.0"
    },
    "scene" : 0,
    "scenes" : [
        {
            "name" : "Scene",
            "nodes" : [
                0,
                1,
                2,
                3,
                4,
                7,
                8
            ]
        }
    ],
    "nodes" : [
        {
            "name" : "Camera",
            "rotation" : [
                0.483536034822464,
                0.33687159419059753,
                -0.20870360732078552,
                0.7804827094078064
            ],
            "translation" : [
                7.358891487121582,
                4.958309173583984,
                6.925790786743164
            ]
        },
        {
            "name" : "Light.001",
            "rotation" : [
                0.16907575726509094,
                0.7558804154396057,
                -0.27217137813568115,
                0.5709474086761475
            ],
            "translation" : [
                4.076245307922363,
                5.903861999511719,
                -1.0054539442062378
            ]
        },
        {
            "mesh" : 0,
            "name" : "Text",
            "rotation" : [
                -0.001146813272498548,
                0.707105815410614,
                -0.7071058750152588,
                0.001146751455962658
            ],
            "scale" : [
                0.09977656602859497,
                0.09977657347917557,
                0.09977656602859497
            ],
            "translation" : [
                -0.357395738363266,
                2.1019999980926514,
                -0.14000000059604645
            ]
        },
        {
            "mesh" : 1,
            "name" : "Text.001",
            "rotation" : [
                -7.684816955588758e-05,
                -0.7071068286895752,
                0.7071068286895752,
                7.690998609177768e-05
            ],
            "scale" : [
                0.11990083754062653,
                0.11990086734294891,
                0.11990083754062653
            ],
            "translation" : [
                0,
                1.1822892427444458,
                -0.13500000536441803
            ]
        },
        {
            "mesh" : 2,
            "name" : "Text.002",
            "rotation" : [
                -7.684815500397235e-05,
                -0.7071068286895752,
                0.7071068286895752,
                7.690998609177768e-05
            ],
            "scale" : [
                0.14386139810085297,
                0.14386139810085297,
                0.14386141300201416
            ],
            "translation" : [
                0,
                1.342289924621582,
                -0.14000000059604645
            ]
        },
        {
            "mesh" : 3,
            "name" : "Wood_01_07_low4",
            "rotation" : [
                0,
                0,
                -0.9238796234130859,
                0.38268348574638367
            ],
            "translation" : [
                11.361976623535156,
                5.703843116760254,
                0
            ]
        },
        {
            "children" : [
                5
            ],
            "name" : "group4",
            "translation" : [
                -4.907970428466797,
                1.3707365989685059,
                0
            ]
        },
        {
            "children" : [
                6
            ],
            "name" : "Prod",
            "rotation" : [
                0.5,
                0.4999999701976776,
                -0.5000000596046448,
                0.4999999403953552
            ],
            "scale" : [
                1.0110000371932983,
                1.0110000371932983,
                1.0110000371932983
            ],
            "translation" : [
                -1.3799999952316284,
                0,
                0
            ]
        },
        {
            "mesh" : 4,
            "name" : "ngnc-logo-gold",
            "rotation" : [
                0.005154846701771021,
                0.7049198746681213,
                -0.709267795085907,
                0.0008068931638263166
            ],
            "scale" : [
                0.2086842656135559,
                0.2086842656135559,
                0.2086842656135559
            ],
            "translation" : [
                0.464229941368103,
                2.0811288356781006,
                -0.14000000059604645
            ]
        }
    ],
    "materials" : [
        {
            "doubleSided" : true,
            "name" : "Material",
            "pbrMetallicRoughness" : {
                "baseColorFactor" : [
                    0.6859572529792786,
                    0.6859572529792786,
                    0.6859572529792786,
                    1
                ],
                "metallicFactor" : 0,
                "roughnessFactor" : 0.4000000059604645
            }
        },
        {
            "doubleSided" : true,
            "name" : "Material.002",
            "pbrMetallicRoughness" : {
                "baseColorFactor" : [
                    0.6859572529792786,
                    0.6859572529792786,
                    0.6859572529792786,
                    1
                ],
                "metallicFactor" : 0,
                "roughnessFactor" : 0.4000000059604645
            }
        },
        {
            "doubleSided" : true,
            "name" : "Material.005",
            "pbrMetallicRoughness" : {
                "baseColorFactor" : [
                    0.30946898460388184,
                    0.1946178674697876,
                    0.08650048077106476,
                    1
                ],
                "metallicFactor" : 0,
                "roughnessFactor" : 0.4000000059604645
            }
        },
        {
            "alphaMode" : "BLEND",
            "doubleSided" : true,
            "name" : "ngnc-logo-gold",
            "pbrMetallicRoughness" : {
                "baseColorTexture" : {
                    "index" : 0
                },
                "metallicFactor" : 0,
                "roughnessFactor" : 0.5
            }
        }
    ],
    "meshes" : [
        {
            "name" : "Text.003",
            "primitives" : [
                {
                    "attributes" : {
                        "POSITION" : 0,
                        "NORMAL" : 1,
                        "TEXCOORD_0" : 2
                    },
                    "indices" : 3,
                    "material" : 0
                }
            ]
        },
        {
            "name" : "Text.004",
            "primitives" : [
                {
                    "attributes" : {
                        "POSITION" : 4,
                        "NORMAL" : 5,
                        "TEXCOORD_0" : 6
                    },
                    "indices" : 7,
                    "material" : 0
                }
            ]
        },
        {
            "name" : "Text.002",
            "primitives" : [
                {
                    "attributes" : {
                        "POSITION" : 8,
                        "NORMAL" : 9,
                        "TEXCOORD_0" : 10
                    },
                    "indices" : 11,
                    "material" : 1
                }
            ]
        },
        {
            "name" : "Mesh.064",
            "primitives" : [
                {
                    "attributes" : {
                        "POSITION" : 12,
                        "NORMAL" : 13,
                        "TEXCOORD_0" : 14
                    },
                    "indices" : 15,
                    "material" : 2
                }
            ]
        },
        {
            "name" : "ngnc-logo-gold",
            "primitives" : [
                {
                    "attributes" : {
                        "POSITION" : 16,
                        "NORMAL" : 17,
                        "TEXCOORD_0" : 18
                    },
                    "indices" : 19,
                    "material" : 3
                }
            ]
        }
    ],
    "textures" : [
        {
            "sampler" : 0,
            "source" : 0
        }
    ],
    "images" : [
        {
            "bufferView" : 20,
            "mimeType" : "image/png",
            "name" : "ngnc-logo-gold"
        }
    ],
    "accessors" : [
        {
            "bufferView" : 0,
            "componentType" : 5126,
            "count" : 2394,
            "max" : [
                4.404000759124756,
                0,
                1.0709999799728394
            ],
            "min" : [
                -4.372999668121338,
                0,
                -0.8500000238418579
            ],
            "type" : "VEC3"
        },
        {
            "bufferView" : 1,
            "componentType" : 5126,
            "count" : 2394,
            "type" : "VEC3"
        },
        {
            "bufferView" : 2,
            "componentType" : 5126,
            "count" : 2394,
            "type" : "VEC2"
        },
        {
            "bufferView" : 3,
            "componentType" : 5123,
            "count" : 5151,
            "type" : "SCALAR"
        },
        {
            "bufferView" : 4,
            "componentType" : 5126,
            "count" : 4109,
            "max" : [
                5.930600166320801,
                0,
                -2.4623000621795654
            ],
            "min" : [
                -5.6326003074646,
                0,
                -3.8222999572753906
            ],
            "type" : "VEC3"
        },
        {
            "bufferView" : 5,
            "componentType" : 5126,
            "count" : 4109,
            "type" : "VEC3"
        },
        {
            "bufferView" : 6,
            "componentType" : 5126,
            "count" : 4109,
            "type" : "VEC2"
        },
        {
            "bufferView" : 7,
            "componentType" : 5123,
            "count" : 9033,
            "type" : "SCALAR"
        },
        {
            "bufferView" : 8,
            "componentType" : 5126,
            "count" : 1628,
            "max" : [
                3.8569998741149902,
                0,
                -3.0394999980926514
            ],
            "min" : [
                -3.5870003700256348,
                0,
                -3.9514999389648438
            ],
            "type" : "VEC3"
        },
        {
            "bufferView" : 9,
            "componentType" : 5126,
            "count" : 1628,
            "type" : "VEC3"
        },
        {
            "bufferView" : 10,
            "componentType" : 5126,
            "count" : 1628,
            "type" : "VEC2"
        },
        {
            "bufferView" : 11,
            "componentType" : 5123,
            "count" : 3609,
            "type" : "SCALAR"
        },
        {
            "bufferView" : 12,
            "componentType" : 5126,
            "count" : 1588,
            "max" : [
                9.500677108764648,
                0.48899269104003906,
                -1.895427703857422e-05
            ],
            "min" : [
                7.593473434448242,
                -1.4202797412872314,
                -2.6091480255126953
            ],
            "type" : "VEC3"
        },
        {
            "bufferView" : 13,
            "componentType" : 5126,
            "count" : 1588,
            "type" : "VEC3"
        },
        {
            "bufferView" : 14,
            "componentType" : 5126,
            "count" : 1588,
            "type" : "VEC2"
        },
        {
            "bufferView" : 15,
            "componentType" : 5123,
            "count" : 7572,
            "type" : "SCALAR"
        },
        {
            "bufferView" : 16,
            "componentType" : 5126,
            "count" : 4,
            "max" : [
                1.5058139562606812,
                0,
                0.5
            ],
            "min" : [
                -1.5058139562606812,
                0,
                -0.5
            ],
            "type" : "VEC3"
        },
        {
            "bufferView" : 17,
            "componentType" : 5126,
            "count" : 4,
            "type" : "VEC3"
        },
        {
            "bufferView" : 18,
            "componentType" : 5126,
            "count" : 4,
            "type" : "VEC2"
        },
        {
            "bufferView" : 19,
            "componentType" : 5123,
            "count" : 6,
            "type" : "SCALAR"
        }
    ],
    "bufferViews" : [
        {
            "buffer" : 0,
            "byteLength" : 28728,
            "byteOffset" : 0
        },
        {
            "buffer" : 0,
            "byteLength" : 28728,
            "byteOffset" : 28728
        },
        {
            "buffer" : 0,
            "byteLength" : 19152,
            "byteOffset" : 57456
        },
        {
            "buffer" : 0,
            "byteLength" : 10302,
            "byteOffset" : 76608
        },
        {
            "buffer" : 0,
            "byteLength" : 49308,
            "byteOffset" : 86912
        },
        {
            "buffer" : 0,
            "byteLength" : 49308,
            "byteOffset" : 136220
        },
        {
            "buffer" : 0,
            "byteLength" : 32872,
            "byteOffset" : 185528
        },
        {
            "buffer" : 0,
            "byteLength" : 18066,
            "byteOffset" : 218400
        },
        {
            "buffer" : 0,
            "byteLength" : 19536,
            "byteOffset" : 236468
        },
        {
            "buffer" : 0,
            "byteLength" : 19536,
            "byteOffset" : 256004
        },
        {
            "buffer" : 0,
            "byteLength" : 13024,
            "byteOffset" : 275540
        },
        {
            "buffer" : 0,
            "byteLength" : 7218,
            "byteOffset" : 288564
        },
        {
            "buffer" : 0,
            "byteLength" : 19056,
            "byteOffset" : 295784
        },
        {
            "buffer" : 0,
            "byteLength" : 19056,
            "byteOffset" : 314840
        },
        {
            "buffer" : 0,
            "byteLength" : 12704,
            "byteOffset" : 333896
        },
        {
            "buffer" : 0,
            "byteLength" : 15144,
            "byteOffset" : 346600
        },
        {
            "buffer" : 0,
            "byteLength" : 48,
            "byteOffset" : 361744
        },
        {
            "buffer" : 0,
            "byteLength" : 48,
            "byteOffset" : 361792
        },
        {
            "buffer" : 0,
            "byteLength" : 32,
            "byteOffset" : 361840
        },
        {
            "buffer" : 0,
            "byteLength" : 12,
            "byteOffset" : 361872
        },
        {
            "buffer" : 0,
            "byteLength" : 6310,
            "byteOffset" : 361884
        }
    ],
    "samplers" : [
        {
            "magFilter" : 9729,
            "minFilter" : 9987,
            "wrapS" : 33071,
            "wrapT" : 33071
        }
    ],
    "buffers" : [
        {
            "byteLength" : 368196,
            "uri" : "data:application/octet-stream;base64,"
        }
    ]
}
