<?xml version="1.0" encoding="UTF-8"?><svg id="a" xmlns="http://www.w3.org/2000/svg" viewBox="0 0 57.89 77.89"><defs><style>.c{fill:#bcbec0;}</style></defs><g id="b" transform="matrix(0.7331786617233396,0,0,0.7331786617233396,-14.686943751805964,-7.4785138067246635)"><g><path class="c" d="M30.16,76.31c.05,.34,.08,.6,.1,.79l-.1-.79Z"/><path class="c" d="M30.29,77.38l-.03-.28c.02,.18,.03,.28,.03,.28Z"/><path class="c" d="M29.22,45.82h8.47c.58,0,1.05-.47,1.05-1.05v-.14c0-.58-.47-1.05-1.05-1.05h-8.47c-.58,0-1.05,.47-1.05,1.05v.14c0,.58,.47,1.05,1.05,1.05Z"/><path class="c" d="M28.85,43.25h9.2c.58,0,1.05-.47,1.05-1.05v-.14c0-.58-.47-1.05-1.05-1.05h-9.2c-.58,0-1.05,.47-1.05,1.05v.14c0,.58,.47,1.05,1.05,1.05Z"/><path class="c" d="M29.4,36.23h-.3c-.54,0-.98,.44-.98,.98v.13c0,.54,.44,.98,.98,.98h8.73c.54,0,.98-.44,.98-.98v-.13c0-.54-.44-.97-.97-.98-.16-.82-.43-2.41-.48-3.71-.04-1.07,.11-1.57,.8-2.36,1.58-1.81,6.2-5.51,6.17-10.99-.04-5.87-4.55-10.67-10.3-11.09v-.03s-.2,0-.39,0h-.43v.03c-5.76,.42-10.27,5.22-10.3,11.09-.03,5.48,4.59,9.19,6.17,10.99,.69,.79,.84,1.3,.8,2.36-.05,1.3-.32,2.88-.48,3.71Z"/><path class="c" d="M28.85,40.8h9.2c.58,0,1.05-.47,1.05-1.05v-.14c0-.58-.47-1.05-1.05-1.05h-9.2c-.58,0-1.05,.47-1.05,1.05v.14c0,.58,.47,1.05,1.05,1.05Z"/></g></g><path class="c" d="M57.69,26.45c-.56,5.6-3.31,11.51-4.78,13.75-2.54,3.87-4.05,8.86-4.54,10.58-.87,3.08-3.79,6.17-6.91,6.58-3.1,.42-7.91,.36-8.95-9.01h-.97c-.58,0-1.05-.47-1.05-1.05v-.14c0-.58,.47-1.05,1.05-1.05h3.81c.58,0,1.05,.47,1.05,1.05v.14c0,.58-.47,1.05-1.05,1.05h-1.08c.06,1.08,.67,7.85,6.44,7.17,3.07-.36,4.99-.74,7.19-8.15,.92-3.11,2.94-6.72,4.13-8.82,.78-1.37,5.62-11.15,3.7-20.71-1-5.02-4.52-9.63-11.05-13.22-4.59-2.53-16.07-4.03-23.93-1.82-8.95,2.52-11.86,9.82-12.08,18.85-.27,11.75-6.69,16.68-6.46,18.13,.18,1.11,2.64,1.07,3.27,2.06,.48,.75-.34,1.92-.34,3.03,0,.81,1.12,.99,1.42,1.78,.3,.79-.71,1.96-.22,2.57,1.79,2.2,1.67,3.37,1.34,5.85-.15,1.1-2.11,5.21,6.81,3.74,1.47-.25,6.46-1.29,10.4,2.8,3.28,3.41,5.03,13.64,5.03,13.64,3.71-5.15,7.42-10.3,11.13-15.45,.14-.25,.3-.5,.37-.47,.21,.08-.5,2.85-1.54,5.14-.33,.72-.84,1.74-3.48,5.24-1.97,2.61-8.18,10.18-6.11,7.66h0s-.01-.1-.03-.28c-.02-.19-.05-.45-.1-.79l.1,.79,.03,.28h-1.84s-.98-19.73-13.29-16.93c0,0-10.46,2.38-9.38-4.48,.46-2.88,1.39-3.08-1.17-6.07-.63-.73,.26-2.17,.37-2.62,.11-.48-1.1-1.1-1.3-1.8-.28-1.04,.48-1.83,.35-2.56-.15-.94-3.62-.72-3.94-1.85-.31-1.09,.11-1.99,1.69-4.02,1.47-1.89,4.98-6.93,4.98-15.33,0-3.23,.2-17.69,13.72-20.74C29.15-.98,60.64-2.94,57.69,26.45Z"/></svg>