<svg xmlns="http://www.w3.org/2000/svg" xmlns:xlink="http://www.w3.org/1999/xlink" viewBox="0 0 57.89 77.89">
    <defs>
        <linearGradient id="a" x1="30.16" y1="76.71" x2="30.26" y2="76.71" gradientUnits="userSpaceOnUse">
            <stop offset="0" stop-color="#ef4237"/><stop offset="1" stop-color="#fbb042"/>
        </linearGradient>
        <linearGradient id="b" x1="30.26" y1="77.24" x2="30.29" y2="77.24" xlink:href="#a"/>
        <linearGradient id="c" x1="-159.16" y1="179.29" x2="-157.83" y2="179.29" gradientTransform="matrix(7.99 0 0 -1.69 1300.32 348.49)" xlink:href="#a"/>
        <linearGradient id="d" x1="-160.71" y1="179.52" x2="-159.39" y2="179.52" gradientTransform="matrix(8.55 0 0 -1.69 1401.82 346.04)" xlink:href="#a"/>
        <linearGradient id="e" x1="-171.96" y1="332.59" x2="-170.72" y2="332.59" gradientTransform="matrix(17.28 0 0 -24.43 2995.23 8148.47)" xlink:href="#a"/>
        <linearGradient id="f" x1="-160.71" y1="180.97" x2="-159.39" y2="180.97" gradientTransform="matrix(8.55 0 0 -1.69 1401.82 346.04)" xlink:href="#a"/>
        <linearGradient id="g" x1="0" y1="38.94" x2="57.89" y2="38.94" xlink:href="#a"/>
    </defs>
    <path d="M30.16 76.31c.05.34.08.6.1.79l-.1-.79Z" style="fill:url(#a)" transform="matrix(.73318 0 0 .73318 -14.687 -7.479)"/>
    <path d="m30.29 77.38-.03-.28.03.28Z" style="fill:url(#b)" transform="matrix(.73318 0 0 .73318 -14.687 -7.479)"/>
    <path d="M29.22 45.82h8.47c.58 0 1.05-.47 1.05-1.05v-.14c0-.58-.47-1.05-1.05-1.05h-8.47c-.58 0-1.05.47-1.05 1.05v.14c0 .58.47 1.05 1.05 1.05Z" style="fill:url(#c)" transform="matrix(.73318 0 0 .73318 -14.687 -7.479)"/>
    <path d="M28.85 43.25h9.2c.58 0 1.05-.47 1.05-1.05v-.14c0-.58-.47-1.05-1.05-1.05h-9.2c-.58 0-1.05.47-1.05 1.05v.14c0 .58.47 1.05 1.05 1.05Z" style="fill:url(#d)" transform="matrix(.73318 0 0 .73318 -14.687 -7.479)"/>
    <path d="M29.4 36.23h-.3c-.54 0-.98.44-.98.98v.13c0 .54.44.98.98.98h8.73c.54 0 .98-.44.98-.98v-.13c0-.54-.44-.97-.97-.98-.16-.82-.43-2.41-.48-3.71-.04-1.07.11-1.57.8-2.36 1.58-1.81 6.2-5.51 6.17-10.99-.04-5.87-4.55-10.67-10.3-11.09v-.03H33.21v.03c-5.76.42-10.27 5.22-10.3 11.09-.03 5.48 4.59 9.19 6.17 10.99.69.79.84 1.3.8 2.36-.05 1.3-.32 2.88-.48 3.71Z" style="fill:url(#e)" transform="matrix(.73318 0 0 .73318 -14.687 -7.479)"/>
    <path d="M28.85 40.8h9.2c.58 0 1.05-.47 1.05-1.05v-.14c0-.58-.47-1.05-1.05-1.05h-9.2c-.58 0-1.05.47-1.05 1.05v.14c0 .58.47 1.05 1.05 1.05Z" style="fill:url(#f)" transform="matrix(.73318 0 0 .73318 -14.687 -7.479)"/>
    <path d="M57.69 26.45c-.56 5.6-3.31 11.51-4.78 13.75-2.54 3.87-4.05 8.86-4.54 10.58-.87 3.08-3.79 6.17-6.91 6.58-3.1.42-7.91.36-8.95-9.01h-.97c-.58 0-1.05-.47-1.05-1.05v-.14c0-.58.47-1.05 1.05-1.05h3.81c.58 0 1.05.47 1.05 1.05v.14c0 .58-.47 1.05-1.05 1.05h-1.08c.06 1.08.67 7.85 6.44 7.17 3.07-.36 4.99-.74 7.19-8.15.92-3.11 2.94-6.72 4.13-8.82.78-1.37 5.62-11.15 3.7-20.71-1-5.02-4.52-9.63-11.05-13.22C40.09 2.09 28.61.59 20.75 2.8 11.8 5.32 8.89 12.62 8.67 21.65 8.4 33.4 1.98 38.33 2.21 39.78c.18 1.11 2.64 1.07 3.27 2.06.48.75-.34 1.92-.34 3.03 0 .81 1.12.99 1.42 1.78.3.79-.71 1.96-.22 2.57 1.79 2.2 1.67 3.37 1.34 5.85-.15 1.1-2.11 5.21 6.81 3.74 1.47-.25 6.46-1.29 10.4 2.8 3.28 3.41 5.03 13.64 5.03 13.64L41.05 59.8c.14-.25.3-.5.37-.47.21.08-.5 2.85-1.54 5.14-.33.72-.84 1.74-3.48 5.24-1.97 2.61-8.18 10.18-6.11 7.66s-.01-.1-.03-.28c-.02-.19-.05-.45-.1-.79l.1.79.03.28h-1.84s-.98-19.73-13.29-16.93c0 0-10.46 2.38-9.38-4.48.46-2.88 1.39-3.08-1.17-6.07-.63-.73.26-2.17.37-2.62.11-.48-1.1-1.1-1.3-1.8-.28-1.04.48-1.83.35-2.56-.15-.94-3.62-.72-3.94-1.85-.31-1.09.11-1.99 1.69-4.02 1.47-1.89 4.98-6.93 4.98-15.33 0-3.23.2-17.69 13.72-20.74 8.67-1.95 40.16-3.91 37.21 25.48Z" style="fill:url(#g)"/>
</svg>